<?xml version="1.0" standalone="no"?>
<!DOCTYPE svg PUBLIC "-//W3C//DTD SVG 20010904//EN"
 "http://www.w3.org/TR/2001/REC-SVG-20010904/DTD/svg10.dtd">
<svg version="1.0" xmlns="http://www.w3.org/2000/svg"
 width="992.000000pt" height="992.000000pt" viewBox="0 0 992.000000 992.000000"
 preserveAspectRatio="xMidYMid meet">
<metadata>
Created by potrace 1.11, written by Peter Selinger 2001-2013
</metadata>
<g transform="translate(0.000000,992.000000) scale(0.100000,-0.100000)"
fill="#000000" stroke="none">
<path d="M4945 8331 c-61 -61 -114 -111 -118 -111 -4 0 -17 8 -27 18 -21 19
-104 64 -130 70 -75 16 -170 3 -241 -34 -46 -23 -128 -109 -138 -145 -2 -8
-10 -36 -17 -63 -8 -28 -26 -62 -40 -77 -23 -24 -26 -33 -20 -71 21 -137 136
-256 267 -274 24 -3 46 -8 48 -10 2 -2 -41 -49 -97 -105 -96 -96 -100 -103
-96 -138 19 -154 127 -272 284 -308 23 -5 92 -5 123 0 25 4 27 2 28 -32 1 -20
3 -70 5 -111 4 -65 10 -202 13 -292 1 -25 6 -27 124 -56 67 -16 123 -29 124
-28 1 1 5 20 8 42 4 21 10 55 15 74 5 19 12 51 15 70 3 19 17 87 30 150 13 63
26 126 29 140 12 70 17 80 41 74 13 -3 45 -6 72 -7 165 -3 307 82 378 226 85
172 55 349 -82 484 -54 54 -54 54 -45 97 22 102 -9 241 -72 331 -74 105 -198
179 -321 191 l-50 5 -110 -110z"/>
<path d="M9445 8382 c-77 -57 -103 -80 -196 -173 -148 -149 -249 -328 -275
-489 -37 -231 59 -505 270 -769 75 -93 82 -98 113 -79 146 89 355 314 433 468
59 117 75 185 75 315 0 121 -9 194 -26 227 -5 10 -6 18 -2 18 4 0 2 5 -5 12
-7 7 -12 18 -12 26 0 22 -85 192 -131 262 -68 103 -166 220 -183 220 -6 -1
-33 -18 -61 -38z"/>
<path d="M394 8353 c-99 -153 -69 -292 85 -402 l30 -21 24 32 c74 99 95 201
57 281 -31 65 -121 157 -155 157 -6 0 -24 -21 -41 -47z"/>
<path d="M7520 8232 c-14 -1 -36 -11 -50 -22 -20 -15 -25 -27 -25 -65 0 -39 5
-51 27 -70 16 -13 37 -22 48 -20 21 4 100 79 100 95 0 43 -56 88 -100 82z"/>
<path d="M6779 8146 c-50 -24 -70 -75 -60 -147 2 -12 36 -46 58 -57 37 -20 53
-14 111 43 54 54 55 57 46 92 -16 62 -96 99 -155 69z"/>
<path d="M6487 8143 c-3 -6 166 -397 238 -550 8 -17 15 -33 15 -36 0 -3 16
-41 35 -84 20 -43 40 -87 45 -98 4 -11 17 -40 28 -65 12 -25 50 -112 87 -195
36 -82 70 -159 75 -170 48 -104 80 -177 80 -181 0 -3 49 -114 89 -199 l19 -40
16 38 c9 21 30 67 46 103 17 35 30 66 30 68 0 2 18 42 39 88 21 45 69 153 106
238 79 182 98 224 136 307 16 34 29 64 29 67 0 3 13 33 29 68 62 133 84 183
87 193 2 9 30 72 80 182 8 17 14 36 14 42 0 6 5 11 10 11 6 0 10 6 10 14 0 8
15 47 34 88 48 106 51 118 28 118 -14 0 -27 -18 -50 -74 -18 -41 -44 -101 -58
-133 -15 -32 -32 -71 -39 -88 -7 -16 -27 -60 -44 -98 -17 -37 -31 -71 -31 -76
0 -4 -26 -8 -59 -8 -66 0 -116 -24 -151 -73 -25 -36 -32 -62 -31 -117 1 -45
39 -119 66 -130 19 -7 19 -34 0 -59 -8 -10 -15 -24 -15 -31 0 -6 -16 -46 -35
-87 -19 -42 -35 -78 -35 -81 0 -3 -13 -32 -29 -64 -16 -33 -26 -62 -23 -65 3
-4 0 -6 -6 -6 -7 0 -12 -7 -12 -15 0 -8 -4 -23 -10 -33 -5 -9 -22 -46 -38 -82
-17 -36 -39 -86 -51 -112 -12 -27 -26 -60 -32 -75 l-11 -28 -13 33 c-8 18 -14
35 -14 39 1 3 -5 9 -12 13 -7 5 -12 22 -11 39 0 17 -3 29 -7 27 -8 -5 -23 27
-97 199 -21 50 -42 93 -47 96 -5 3 -9 10 -9 15 -1 15 -72 182 -160 374 -16 36
-41 92 -55 125 -14 33 -35 83 -48 110 -43 93 -75 166 -75 169 0 2 -18 44 -41
93 -62 135 -67 146 -78 176 -10 25 -34 36 -44 20z"/>
<path d="M7188 7939 c-48 -24 -72 -64 -74 -124 -2 -40 2 -56 22 -82 27 -36 72
-63 102 -63 10 0 51 33 91 74 l72 75 -16 38 c-17 44 -70 93 -100 94 -11 0 -30
2 -41 3 -12 1 -37 -5 -56 -15z"/>
<path d="M165 7861 c-27 -6 -30 -10 -33 -51 -4 -57 14 -154 39 -201 26 -53 91
-104 153 -122 56 -15 165 -20 186 -7 11 7 15 96 7 140 -12 63 -51 138 -87 168
-32 28 -117 62 -170 68 -30 3 -57 7 -60 8 -3 2 -18 0 -35 -3z"/>
<path d="M786 7838 c-9 -5 -16 -7 -16 -4 0 12 -117 -47 -143 -72 -63 -59 -83
-145 -63 -265 l7 -49 42 7 c62 10 151 52 185 88 53 56 77 173 54 267 -8 37
-32 47 -66 28z"/>
<path d="M2469 7661 c-1 -3 0 -16 1 -28 1 -21 -3 -23 -44 -23 -25 0 -47 -4
-50 -9 -10 -15 18 -29 52 -27 43 3 49 -2 56 -49 11 -68 16 -97 33 -175 8 -41
17 -86 19 -100 3 -14 9 -40 14 -57 8 -32 7 -33 -20 -33 -16 0 -30 -7 -34 -15
-3 -8 -2 -15 2 -16 4 -1 19 -2 35 -3 33 -3 34 -4 40 -41 6 -32 27 -127 53
-234 9 -36 17 -72 19 -80 2 -9 11 -45 20 -80 9 -36 17 -73 18 -82 1 -13 5 -15
13 -8 12 10 29 57 26 72 -1 4 2 7 6 7 5 0 15 19 22 43 8 23 17 47 21 52 4 6
28 62 54 125 25 63 53 129 60 145 63 141 193 512 201 575 l6 46 -311 0 c-171
0 -311 -2 -312 -5z"/>
<path d="M7060 7501 c-56 -29 -76 -75 -71 -159 2 -31 59 -91 100 -102 33 -9
36 -7 107 62 80 77 86 93 54 145 -40 66 -123 90 -190 54z"/>
<path d="M810 7429 c-65 -12 -140 -52 -182 -95 -45 -48 -71 -130 -72 -233 l-1
-74 -40 -2 c-60 -2 -72 3 -70 33 2 38 -21 150 -39 194 -30 69 -114 137 -192
153 -16 3 -66 9 -111 12 -80 5 -82 5 -88 -18 -7 -30 1 -143 13 -184 31 -101
97 -172 187 -201 63 -21 142 -26 343 -25 82 1 92 3 92 19 0 17 18 25 108 45 7
2 18 9 24 15 7 7 17 12 24 12 31 0 123 137 108 161 -3 5 -1 9 4 9 6 0 9 39 9
93 l-2 92 -35 1 c-19 0 -55 -3 -80 -7z"/>
<path d="M9346 6778 c-63 -69 -143 -217 -124 -229 6 -4 36 -5 67 -3 31 2 115
6 186 8 125 4 130 5 127 25 -6 41 -58 117 -128 189 l-71 74 -57 -64z"/>
<path d="M8998 5996 c-1 -2 -39 -6 -83 -9 -305 -21 -564 -188 -660 -424 -33
-82 -39 -119 -39 -228 1 -100 9 -160 29 -210 4 -11 14 -34 21 -52 29 -74 121
-172 218 -233 52 -33 172 -90 189 -90 7 0 17 -4 23 -9 8 -8 155 -54 210 -66
10 -2 80 -18 154 -35 74 -17 143 -33 153 -35 10 -2 27 -7 37 -10 10 -3 27 -7
37 -9 58 -12 261 -106 301 -140 59 -50 83 -81 113 -143 28 -60 31 -74 31 -167
0 -86 -4 -133 -12 -143 -2 -2 -3 -6 -4 -10 -14 -61 -73 -150 -133 -202 -26
-23 -84 -59 -128 -80 -71 -34 -106 -46 -205 -67 -36 -7 -298 -6 -310 1 -6 4
-28 8 -48 10 -181 15 -452 153 -627 319 l-30 28 -57 -63 c-32 -35 -58 -68 -58
-74 0 -15 145 -129 246 -192 90 -57 290 -143 364 -157 14 -2 32 -7 40 -10 103
-38 500 -42 597 -5 13 5 23 7 23 4 0 -2 38 11 85 30 77 30 171 82 201 110 7 6
25 22 40 36 86 73 161 200 188 317 23 99 18 240 -11 337 -14 44 -29 82 -34 83
-5 2 -9 8 -9 13 0 28 -103 140 -172 186 -118 81 -307 154 -508 198 -316 69
-377 88 -529 163 -190 94 -274 261 -237 475 19 112 126 245 246 304 168 83
401 101 615 48 33 -9 67 -17 76 -19 81 -20 227 -101 347 -193 l44 -33 21 27
c12 16 24 30 27 33 3 3 19 22 34 43 34 45 35 45 -77 120 -126 86 -291 162
-396 182 -12 2 -30 6 -39 9 -35 11 -80 16 -177 22 -55 3 -105 7 -112 9 -6 2
-13 2 -15 1z"/>
<path d="M4226 5925 c-33 -66 -136 -286 -136 -290 0 -1 -21 -47 -46 -101 -85
-184 -97 -209 -124 -269 -37 -81 -96 -207 -131 -281 -16 -34 -29 -66 -29 -72
0 -5 -7 -15 -15 -22 -8 -6 -14 -15 -13 -18 2 -9 -9 -32 -62 -147 -42 -89 -74
-158 -132 -285 -17 -36 -48 -102 -69 -148 -22 -46 -39 -85 -39 -87 0 -1 -24
-54 -54 -116 -29 -63 -65 -139 -79 -169 -13 -30 -40 -89 -60 -130 -96 -207
-118 -254 -123 -274 -5 -21 -2 -21 85 -22 l91 0 21 45 c29 61 86 185 111 241
11 25 25 59 33 75 67 153 147 320 155 325 13 8 1434 5 1448 -3 6 -5 12 -16 12
-26 0 -9 4 -21 9 -27 5 -5 42 -81 81 -169 40 -88 87 -192 105 -231 19 -40 48
-105 66 -145 17 -41 35 -76 40 -79 10 -7 186 -6 192 0 2 3 -12 39 -32 81 -20
41 -47 100 -60 130 -14 30 -46 99 -72 154 -95 204 -209 456 -209 465 0 6 -4
10 -10 10 -5 0 -10 6 -10 13 0 7 -11 37 -25 65 -25 51 -74 157 -122 262 -14
30 -48 102 -74 159 -27 57 -49 104 -49 106 0 2 -23 52 -51 111 -28 60 -62 134
-76 164 -14 30 -48 102 -74 159 -27 57 -49 105 -49 107 0 2 -25 56 -56 121
-30 65 -63 134 -71 153 -41 90 -95 205 -100 210 -2 2 -42 5 -88 5 l-84 1 -25
-51z m154 -256 c0 -4 22 -53 48 -110 27 -57 68 -147 92 -199 23 -52 56 -124
73 -160 16 -36 41 -90 54 -120 14 -30 35 -75 46 -100 11 -25 21 -47 22 -50 0
-3 11 -27 24 -55 13 -27 48 -104 78 -170 30 -66 63 -138 73 -160 10 -22 31
-67 46 -100 14 -33 31 -68 36 -77 8 -17 -25 -18 -642 -18 l-651 0 19 38 c20
39 65 133 67 142 2 8 31 71 157 345 157 341 165 359 168 370 1 6 8 21 15 35 7
14 16 32 19 40 3 8 10 22 15 30 5 8 27 56 49 105 22 50 55 122 72 160 18 39
41 90 52 114 l19 45 24 -50 c13 -27 25 -52 25 -55z"/>
<path d="M0 4726 l0 -1232 92 1 92 1 0 457 0 457 26 0 c14 1 198 2 410 4 212
2 399 7 415 10 17 4 53 11 80 16 82 15 93 18 114 30 12 6 21 8 21 6 0 -8 136
52 192 85 95 56 180 133 239 216 50 72 112 222 112 273 0 8 3 20 6 25 8 11 5
222 -2 267 -18 99 -79 239 -132 303 -39 47 -119 125 -128 125 -4 0 -18 9 -30
21 -50 46 -264 132 -361 144 -23 3 -52 8 -66 11 -14 4 -262 8 -552 9 l-528 2
0 -1231z m1064 1050 c241 -39 415 -150 501 -318 19 -38 32 -68 30 -68 -3 0 0
-12 5 -26 24 -63 30 -188 13 -282 -42 -226 -206 -390 -464 -462 -114 -31 -168
-35 -579 -35 l-385 0 -1 595 c0 327 1 598 3 602 4 8 823 3 877 -6z"/>
<path d="M2378 5952 c-3 -16 -6 -2419 -3 -2438 4 -19 11 -20 92 -20 l88 1 0
1230 1 1231 -88 1 c-48 1 -89 -2 -90 -5z"/>
<path d="M6729 5560 c0 -8 -2 -176 -2 -372 -1 -196 -5 -360 -9 -363 -4 -4
-175 -8 -380 -9 l-373 -1 0 -82 -1 -83 81 -1 c44 0 215 -1 380 -2 l300 -2 1
-355 c1 -195 2 -365 3 -377 1 -22 5 -23 85 -23 79 0 84 1 87 23 2 12 3 173 2
357 -1 184 0 345 3 357 l4 22 369 -1 c204 0 374 3 379 6 6 3 9 41 8 83 l-1 78
-378 0 c-370 0 -378 0 -382 20 -2 11 -3 177 -2 368 1 192 -1 354 -5 360 -4 6
-40 11 -87 12 -66 0 -81 -2 -82 -15z"/>
<path d="M4661 2943 c1 -5 1 -62 0 -127 l-1 -119 -37 36 c-41 42 -93 60 -149
52 -43 -7 -111 -49 -128 -80 -6 -11 -14 -22 -17 -25 -14 -11 -25 -98 -17 -139
29 -164 228 -221 327 -95 l20 25 3 -43 c2 -30 7 -43 18 -43 13 0 15 39 17 283
1 272 1 282 -18 282 -10 0 -18 -3 -18 -7z m-98 -207 c41 -16 81 -67 94 -116
28 -105 -68 -220 -172 -204 -88 13 -133 70 -133 169 1 124 102 197 211 151z"/>
<path d="M5 2922 c-3 -3 -5 -126 -5 -273 0 -246 1 -267 17 -265 22 3 22 5 25
111 l3 90 95 1 c52 1 95 3 95 4 0 1 11 3 24 6 35 6 88 41 111 74 38 54 29 157
-19 202 -42 39 -91 50 -219 53 -67 1 -124 -1 -127 -3z m282 -55 c45 -24 66
-60 66 -111 0 -90 -62 -129 -211 -130 l-97 -1 -2 131 -3 131 108 -2 c80 -1
115 -5 139 -18z"/>
<path d="M5719 2899 c0 -16 -1 -130 -1 -254 0 -285 -1 -264 20 -261 16 3 17
24 18 272 2 259 1 270 -17 271 -15 1 -19 -5 -20 -28z"/>
<path d="M8753 2905 c0 -19 5 -25 22 -25 17 0 23 6 23 25 0 19 -6 25 -23 25
-17 0 -22 -6 -22 -25z"/>
<path d="M662 2770 c-37 -18 -85 -63 -95 -90 -3 -8 -5 6 -5 31 1 51 -6 69 -26
69 -11 0 -13 -39 -12 -197 1 -169 3 -198 16 -198 9 0 16 10 17 25 0 14 2 30 3
35 1 6 1 15 0 20 -3 13 -1 93 4 125 3 30 27 77 53 106 15 18 56 36 110 50 16
4 5 41 -13 41 -8 0 -31 -8 -52 -17z"/>
<path d="M916 2765 c-64 -31 -103 -83 -111 -151 l-5 -34 203 2 202 3 -3 30
c-6 50 -49 112 -97 141 -61 35 -128 39 -189 9z"/>
<path d="M1437 2776 c-124 -45 -167 -200 -83 -294 73 -80 195 -88 270 -17 20
18 36 28 37 22 10 -112 -43 -185 -138 -189 -51 -1 -99 10 -141 34 -28 15 -37
17 -43 6 -11 -18 -5 -22 87 -52 106 -35 161 -28 222 28 39 35 53 83 54 187 0
54 -3 102 -6 107 -3 6 -2 13 2 16 10 6 8 48 -2 65 -4 5 -3 12 2 15 4 2 6 21 4
40 -3 26 -9 36 -22 36 -11 0 -17 -8 -17 -22 -1 -51 -2 -52 -30 -26 -16 14 -38
31 -50 37 -35 18 -105 21 -146 7z"/>
<path d="M2017 2775 c-49 -17 -84 -43 -105 -80 l-11 -20 -2 20 c0 11 -2 33 -2
50 -1 19 -8 31 -19 33 -20 4 -18 21 -19 -252 0 -71 4 -133 10 -139 19 -19 29
5 28 71 0 37 2 95 6 129 7 53 13 67 46 101 28 28 51 42 79 47 42 7 59 26 39
43 -8 7 -25 6 -50 -3z"/>
<path d="M2746 2780 c-16 -5 -42 -21 -57 -36 l-29 -28 0 32 c0 25 -4 32 -19
32 -17 0 -18 -11 -17 -197 1 -179 3 -196 19 -199 15 -2 17 9 18 114 1 149 3
165 29 203 51 70 156 66 193 -9 14 -28 17 -61 20 -217 2 -73 5 -90 17 -90 12
0 15 21 17 120 2 155 7 175 46 212 28 28 38 31 84 30 89 -4 113 -46 112 -200
-1 -169 -1 -166 19 -163 15 3 17 17 17 147 -1 161 -9 193 -61 228 -63 44 -170
29 -211 -29 -15 -22 -33 -27 -33 -9 0 23 -60 58 -110 64 -14 2 -38 0 -54 -5z"/>
<path d="M4937 2766 c-50 -25 -94 -87 -103 -144 l-7 -42 186 0 185 0 -5 38
c-3 20 -12 52 -20 70 -15 32 -72 86 -93 88 -5 1 -11 3 -12 4 -2 1 -22 3 -46 5
-28 1 -57 -5 -85 -19z"/>
<path d="M6038 2769 c-20 -10 -44 -29 -52 -41 -16 -22 -16 -22 -16 16 0 30 -3
37 -17 34 -16 -3 -18 -22 -21 -200 -2 -183 -1 -196 15 -194 16 3 19 19 23 142
6 157 16 185 75 210 73 30 144 9 170 -51 13 -30 12 -26 14 -169 1 -122 3 -134
19 -132 15 3 17 18 20 137 3 119 1 139 -18 180 -37 77 -134 109 -212 68z"/>
<path d="M6552 2783 c-12 -3 -38 -19 -57 -37 -30 -28 -35 -31 -36 -15 -1 11
-2 25 -3 31 0 7 -9 14 -18 16 -20 4 -19 19 -20 -219 0 -86 2 -162 6 -167 4 -6
13 -9 20 -6 9 4 12 32 11 112 -1 134 8 179 45 216 36 36 110 47 157 22 48 -24
62 -77 60 -219 -2 -115 6 -149 31 -133 5 3 8 69 7 148 -1 158 -10 189 -65 228
-29 21 -90 31 -138 23z"/>
<path d="M7008 2771 c-71 -33 -110 -82 -123 -154 l-7 -37 203 2 204 3 -3 30
c-13 118 -167 206 -274 156z"/>
<path d="M8393 2770 c-51 -24 -79 -52 -103 -105 -54 -119 17 -262 139 -282 25
-4 48 -6 51 -6 3 1 19 3 37 6 33 5 79 33 103 61 18 23 -15 34 -38 13 -30 -28
-90 -47 -127 -42 -90 11 -146 83 -140 178 6 100 78 165 169 153 23 -3 44 -5
48 -5 3 -1 21 -13 38 -27 20 -17 35 -23 41 -17 16 16 1 38 -43 63 -51 29 -124
33 -175 10z"/>
<path d="M9076 2775 c-73 -20 -127 -83 -142 -161 l-6 -34 202 2 c231 3 225 0
185 86 -25 53 -70 93 -125 111 -40 12 -63 11 -114 -4z"/>
<path d="M9561 2761 c-23 -14 -41 -32 -41 -40 0 -26 -14 -1 -15 27 0 17 -6 28
-17 30 -20 4 -19 15 -19 -208 0 -201 -1 -189 18 -186 16 3 18 17 19 122 1 145
7 173 44 209 23 22 42 29 83 33 46 4 57 1 84 -22 43 -36 52 -72 50 -205 -1
-77 2 -119 10 -130 23 -29 29 4 28 146 -2 144 -10 178 -52 214 -52 43 -134 47
-192 10z"/>
<path d="M7376 2728 c13 -26 21 -48 18 -48 -4 0 -2 -6 4 -12 6 -7 28 -53 50
-103 69 -157 84 -185 98 -185 15 0 17 4 123 240 38 85 65 157 60 158 -24 9
-40 -16 -95 -145 -32 -76 -63 -141 -69 -145 -5 -4 -6 -8 -2 -8 4 0 3 -9 -4
-21 -14 -27 -18 -21 -63 86 -21 50 -44 104 -51 120 -7 17 -21 49 -31 72 -14
33 -22 42 -40 41 l-22 -2 24 -48z"/>
<path d="M8756 2585 c0 -107 3 -197 6 -200 3 -3 11 -3 19 0 12 4 14 40 13 193
-1 103 -2 190 -3 195 0 4 -9 7 -18 7 -17 0 -18 -16 -17 -195z"/>
<path d="M2290 2728 c-11 -12 -20 -25 -20 -28 0 -4 -11 -20 -25 -36 -14 -16
-25 -32 -25 -36 0 -3 31 -5 70 -3 38 2 84 0 102 -5 37 -11 47 -2 40 38 -6 35
-29 62 -69 78 -43 18 -49 18 -73 -8z"/>
<path d="M3467 2687 l-44 -63 81 0 c45 1 93 -3 109 -7 24 -7 27 -5 27 18 0 33
-25 82 -49 94 -10 6 -32 13 -49 16 -28 5 -34 0 -75 -58z"/>
<path d="M7938 2693 c-20 -32 -58 -77 -83 -101 -28 -26 -45 -51 -45 -65 1 -25
-4 -29 52 51 17 24 38 42 54 45 25 4 146 1 175 -5 16 -3 19 25 6 64 -10 32
-42 54 -88 63 -33 6 -35 3 -71 -52z"/>
<path d="M2189 2603 c-17 -4 -63 -78 -57 -92 2 -5 20 16 40 45 20 30 36 53 35
53 -1 -1 -9 -3 -18 -6z"/>
<path d="M3378 2585 c-26 -24 -45 -62 -35 -71 3 -3 13 8 23 25 10 17 21 31 25
31 4 0 9 9 12 20 6 25 7 25 -25 -5z"/>
<path d="M1936 2023 c-3 -4 -6 -132 -6 -285 0 -261 1 -279 18 -276 16 3 17 25
19 280 1 223 -1 277 -12 281 -7 3 -16 3 -19 0z"/>
<path d="M6940 2021 c-14 -5 -16 -43 -15 -276 0 -260 5 -309 28 -286 9 9 16
556 6 565 -2 2 -11 1 -19 -3z"/>
<path d="M7880 1902 l0 -129 -40 38 c-24 23 -54 41 -76 45 -147 27 -260 -94
-229 -247 13 -67 45 -109 103 -138 73 -36 145 -23 206 36 l38 37 -4 -39 c-2
-34 0 -40 17 -40 19 0 20 7 21 116 0 64 4 121 8 127 4 7 4 12 -1 12 -4 0 -7
65 -7 145 2 133 0 146 -17 156 -18 9 -19 4 -19 -119z m-83 -98 c86 -42 111
-175 48 -256 -45 -56 -139 -75 -199 -39 -40 23 -76 93 -76 148 0 132 109 202
227 147z"/>
<path d="M8483 2022 c-12 -8 -13 -562 0 -562 4 0 12 0 17 0 6 0 10 16 10 35 0
19 2 35 5 35 3 0 19 -13 36 -30 80 -76 214 -59 277 36 68 104 31 257 -74 305
-77 35 -158 19 -215 -42 l-29 -31 0 125 c0 122 -4 143 -27 129z m254 -213 c29
-11 71 -68 79 -109 21 -109 -29 -192 -125 -210 -88 -16 -181 65 -181 158 0
129 107 205 227 161z"/>
<path d="M8970 1740 c0 -273 0 -280 20 -280 20 0 20 7 20 280 0 273 0 280 -20
280 -20 0 -20 -7 -20 -280z"/>
<path d="M1558 2002 c-10 -2 -25 -20 -34 -40 -10 -20 -35 -75 -57 -122 -21
-46 -46 -103 -55 -125 -8 -22 -21 -47 -29 -56 -7 -8 -13 -21 -13 -27 0 -12
-31 -83 -40 -92 -9 -9 -30 -60 -30 -75 0 -8 7 -11 19 -8 11 3 30 33 51 79 l32
74 159 0 160 0 34 -75 c27 -57 40 -75 55 -75 11 0 20 2 20 5 0 6 -75 171 -90
197 -6 10 -10 25 -10 33 0 8 -4 15 -9 15 -5 0 -13 10 -17 23 -10 32 -105 239
-118 257 -6 9 -19 14 -28 12z m32 -104 c12 -29 43 -95 67 -147 24 -52 41 -96
39 -98 -6 -7 -217 -9 -247 -3 l-27 5 24 50 c87 187 104 226 104 235 0 25 19 5
40 -42z"/>
<path d="M2102 1981 c4 -36 43 -37 43 -1 0 19 -5 25 -23 26 -19 1 -23 -3 -20
-25z"/>
<path d="M6104 1992 c-74 -37 -104 -93 -90 -167 5 -26 18 -42 51 -65 24 -16
50 -30 59 -30 18 0 32 -20 20 -29 -5 -4 -36 -34 -68 -68 -52 -54 -58 -64 -46
-78 48 -58 206 -84 263 -43 53 38 65 112 25 151 -22 21 -86 43 -135 46 -26 2
-11 23 80 117 50 53 92 103 92 113 0 47 -186 87 -251 53z"/>
<path d="M3910 1916 c0 -65 0 -65 -27 -63 -22 2 -28 -2 -28 -18 0 -14 7 -20
25 -20 28 0 28 1 29 -172 1 -70 4 -84 20 -92 18 -10 19 -5 19 107 0 183 -8
164 65 161 34 -1 63 1 65 4 10 27 -1 32 -63 31 -42 -1 -65 3 -66 10 -1 6 -2
33 -3 61 -1 39 -5 50 -18 53 -16 3 -18 -5 -18 -62z"/>
<path d="M5535 1912 c-3 -3 -5 -41 -5 -84 l0 -78 -79 0 c-60 0 -80 -3 -84 -15
-9 -22 7 -27 86 -24 l72 2 5 -81 c3 -45 8 -82 13 -82 4 0 12 0 17 0 6 0 10 33
10 80 l0 80 53 1 c28 1 66 0 82 -1 24 -1 31 3 32 19 2 20 -4 21 -83 21 l-84 0
0 83 c0 68 -3 84 -15 84 -8 0 -17 -3 -20 -5z"/>
<path d="M115 1846 c-43 -19 -82 -61 -100 -111 -31 -81 -34 -80 170 -80 203 0
194 -4 167 81 -32 100 -142 152 -237 110z"/>
<path d="M465 1851 c-5 -8 -7 -142 -6 -313 1 -70 3 -78 20 -78 17 0 19 9 19
123 1 131 4 154 23 185 33 52 131 72 184 38 42 -28 53 -68 54 -203 2 -161 1
-154 21 -143 16 8 17 26 16 153 -2 129 -5 148 -24 179 -27 43 -75 68 -130 68
-53 0 -84 -13 -116 -47 l-26 -28 -1 25 c-1 14 -1 28 -1 32 2 10 -27 18 -33 9z"/>
<path d="M2115 1852 c-6 -4 -9 -78 -9 -187 2 -228 1 -214 22 -209 15 5 17 22
17 194 0 181 -6 219 -30 202z"/>
<path d="M2279 1852 c0 -4 -1 -94 -2 -200 -2 -186 -1 -192 18 -192 19 0 20 6
20 118 0 69 5 133 12 156 12 36 55 84 78 87 47 6 64 5 87 -7 54 -28 62 -53 63
-208 1 -132 2 -141 20 -144 19 -3 20 4 21 130 0 88 5 143 13 163 20 45 58 69
106 69 97 -2 120 -46 120 -232 -1 -127 0 -133 20 -130 19 3 20 10 19 140 -1
117 -4 142 -23 180 -45 94 -183 107 -249 23 l-20 -25 -20 25 c-28 35 -70 55
-117 55 -42 0 -102 -29 -111 -55 -10 -26 -22 -16 -18 14 4 22 0 30 -16 34 -11
3 -20 2 -21 -1z"/>
<path d="M3085 1846 c-43 -19 -82 -61 -100 -111 -31 -81 -34 -80 168 -80 114
0 177 3 178 10 6 38 -14 100 -43 136 -43 53 -137 74 -203 45z"/>
<path d="M3436 1853 c-3 -4 -6 -95 -6 -204 0 -189 1 -197 19 -192 17 4 19 16
20 134 2 98 6 139 18 165 9 19 20 34 24 34 4 0 15 8 24 17 23 23 104 23 139
-1 45 -29 56 -71 56 -215 0 -102 3 -130 14 -134 21 -8 23 5 22 158 -1 127 -3
144 -24 176 -49 80 -167 93 -241 26 -31 -27 -37 -24 -32 19 2 13 -24 26 -33
17z"/>
<path d="M4285 1853 c-20 -5 -69 -37 -91 -58 -21 -20 -44 -73 -46 -107 l-3
-33 193 0 c130 0 196 3 203 11 11 13 -14 90 -39 119 -37 45 -82 67 -140 70
-31 2 -66 1 -77 -2z"/>
<path d="M4692 1843 c-82 -40 -78 -143 8 -177 22 -9 40 -18 40 -21 0 -2 -22
-28 -50 -57 l-50 -52 32 -20 c18 -12 55 -22 87 -24 69 -5 111 21 111 68 0 26
-38 70 -61 70 -4 0 -19 4 -33 10 -25 9 -25 10 49 86 41 43 75 81 75 86 0 16
-73 41 -125 44 -31 2 -63 -3 -83 -13z"/>
<path d="M6575 1853 c-46 -9 -75 -26 -75 -44 0 -19 11 -25 24 -12 3 4 12 8 19
9 7 1 30 6 52 12 63 14 128 -9 149 -52 9 -19 16 -44 16 -55 0 -19 -4 -21 -42
-15 -114 17 -200 -3 -235 -55 -40 -59 -34 -67 60 -81 45 -7 88 -13 95 -13 6 0
12 -3 12 -6 0 -3 21 -7 46 -8 55 -3 73 -15 67 -47 -5 -23 20 -45 31 -27 3 4 4
75 3 157 -3 165 -11 190 -71 221 -30 16 -110 24 -151 16z"/>
<path d="M7093 1842 c-7 -15 -8 -78 -4 -204 0 -21 4 -37 9 -37 21 4 30 -4 35
-29 7 -35 52 -81 81 -84 23 -1 55 -1 72 1 6 0 28 12 48 26 21 14 41 23 45 20
5 -2 7 -20 6 -39 -1 -26 3 -36 17 -39 22 -6 20 -22 22 205 1 141 -2 189 -11
192 -22 9 -26 -14 -27 -143 -2 -115 -13 -171 -33 -171 -6 0 -106 28 -133 38
-8 3 -26 7 -39 9 -55 9 -56 12 -56 142 1 89 -2 122 -12 125 -7 3 -16 -2 -20
-12z"/>
<path d="M8107 1845 c-55 -14 -59 -17 -52 -37 5 -13 11 -13 44 -2 55 19 111
19 153 1 40 -17 53 -35 61 -85 l6 -34 -42 7 c-118 19 -210 -3 -242 -58 -22
-36 -27 -55 -16 -61 4 -3 70 -15 147 -27 76 -12 142 -27 146 -32 3 -6 5 -18 3
-28 -5 -23 20 -45 31 -28 9 15 10 242 0 291 -7 39 -62 97 -94 99 -73 6 -103 5
-145 -6z"/>
<path d="M9225 1843 c-16 -8 -42 -29 -58 -47 -30 -34 -59 -115 -46 -131 4 -6
75 -10 180 -10 163 0 172 1 179 20 4 11 3 26 -2 33 -6 6 -8 12 -4 12 11 0 -31
74 -56 97 -47 44 -136 57 -193 26z"/>
<path d="M9635 1850 c-26 -10 -65 -47 -66 -63 0 -7 -2 -20 -4 -31 -6 -31 15
-62 59 -86 22 -13 43 -25 45 -27 2 -1 -20 -27 -50 -56 l-54 -54 38 -18 c67
-33 128 -35 166 -7 56 42 37 100 -40 123 -21 7 -39 16 -39 20 0 4 25 33 55 63
30 31 62 67 70 80 16 24 16 25 -17 42 -36 19 -131 27 -163 14z"/>
<path d="M3959 1516 c14 -17 71 -39 71 -27 0 7 -63 41 -77 41 -3 0 0 -6 6 -14z"/>
<path d="M4055 1490 c-8 -13 15 -24 27 -12 6 6 4 11 -6 15 -8 3 -18 2 -21 -3z"/>
</g>
</svg>
