<svg id="Capa_1" data-name="Capa 1" xmlns="http://www.w3.org/2000/svg" viewBox="0 0 992.13 700.92"><defs><style>.cls-1{fill:#fdeb66;}.cls-2{fill:#231f20;}.cls-3{fill:#fac728;}.cls-4{fill:#79c144;}.cls-5{fill:#45bfee;}.cls-6{fill:#f6b147;}.cls-7{fill:#999;}</style></defs><title>logo_PIAS</title><path class="cls-1" d="M930.81,208.21,998.86,57.66a100.56,100.56,0,0,0-142.22,0Z" transform="translate(-215.01 -28.2)"/><path class="cls-2" d="M1004.6,61.25a98.84,98.84,0,0,0-139.59,0l-2.63-2.63a102.57,102.57,0,0,1,144.85,0Z" transform="translate(-215.01 -28.2)"/><polygon class="cls-2" points="719.8 193.64 648.27 31.95 651.67 30.44 719.8 184.44 787.93 30.41 791.34 31.93 719.8 193.64"/><path class="cls-2" d="M897.87,81.53A11.58,11.58,0,1,1,909.45,70a11.6,11.6,0,0,1-11.58,11.58m0-19.43A7.86,7.86,0,1,0,905.73,70a7.87,7.87,0,0,0-7.85-7.86" transform="translate(-215.01 -28.2)"/><path class="cls-2" d="M927.75,150.83a14.38,14.38,0,1,1,14.38-14.38,14.4,14.4,0,0,1-14.38,14.38m0-25a10.66,10.66,0,1,0,10.66,10.66,10.67,10.67,0,0,0-10.66-10.66" transform="translate(-215.01 -28.2)"/><path class="cls-2" d="M968.38,141.18a18.07,18.07,0,1,1,14.56-33.08l-1.5,3.41a14.35,14.35,0,0,0-18.91,7.35,14.37,14.37,0,0,0,7.34,18.91Z" transform="translate(-215.01 -28.2)"/><path class="cls-2" d="M968.15,69.09a9.15,9.15,0,1,1,9.15-9.15,9.16,9.16,0,0,1-9.15,9.15m0-14.59a5.44,5.44,0,1,0,5.43,5.44,5.46,5.46,0,0,0-5.43-5.44" transform="translate(-215.01 -28.2)"/><path class="cls-2" d="M940.27,107.32a14.37,14.37,0,1,1,14.37-14.37,14.4,14.4,0,0,1-14.37,14.37m0-25a10.65,10.65,0,1,0,10.66,10.64,10.67,10.67,0,0,0-10.66-10.64" transform="translate(-215.01 -28.2)"/><path class="cls-2" d="M928.47,203.39,927,200a7.3,7.3,0,0,0,4-4,7.4,7.4,0,0,0-9.74-9.59l-1.44-3.43a11.11,11.11,0,1,1,8.65,20.47" transform="translate(-215.01 -28.2)"/><path class="cls-3" d="M277.58,140.79c-10,11.48-6.26,31.16-6.26,31.16s20,1.06,30-10.42,6.25-31.16,6.25-31.16-20-1.06-30,10.42" transform="translate(-215.01 -28.2)"/><path class="cls-3" d="M274.39,101.69c-7.39,11.08-1.91,27.71-1.91,27.71s17.45-1.33,24.84-12.42,1.9-27.71,1.9-27.71-17.45,1.35-24.83,12.42" transform="translate(-215.01 -28.2)"/><path class="cls-3" d="M240.85,113.19c8.68,10.16,24.06,11.24,24.06,11.24s1.31-15.35-7.37-25.52-24.08-11.26-24.08-11.26-1.3,15.38,7.38,25.54" transform="translate(-215.01 -28.2)"/><path class="cls-3" d="M229.86,161.69c9.12,10.65,27.5,9.86,27.5,9.86s3.64-18-5.46-28.69S224.4,133,224.4,133s-3.64,18.05,5.46,28.7" transform="translate(-215.01 -28.2)"/><path class="cls-3" d="M248.61,59.44c2,13.16,17.31,21.7,17.31,21.7s12-12.78,9.92-25.94S258.52,33.5,258.52,33.5s-12,12.78-9.91,25.94" transform="translate(-215.01 -28.2)"/><path class="cls-2" d="M265.5,220.26a1.87,1.87,0,0,1-1.87-1.85V80.83a1.86,1.86,0,0,1,3.73,0V218.41a1.86,1.86,0,0,1-1.86,1.85" transform="translate(-215.01 -28.2)"/><path class="cls-2" d="M265.5,83.29a1.86,1.86,0,0,1-1.16-.41c-.6-.46-14.93-11.86-14.93-26.36s14.33-25.87,14.93-26.35a1.87,1.87,0,0,1,2.3,0c.61.49,14.94,11.86,14.94,26.35s-14.33,25.89-14.94,26.36a1.87,1.87,0,0,1-1.14.41m0-49.19c-3.26,2.91-12.38,12-12.38,22.43S262.23,76.06,265.5,79c3.26-2.92,12.36-12,12.36-22.45S268.76,37,265.5,34.09" transform="translate(-215.01 -28.2)"/><path class="cls-2" d="M270.66,127.47h0a40.38,40.38,0,0,1-4.6-.23,1.84,1.84,0,0,1-1.61-1.62c-.1-.77-2.18-19,8.06-29.21,7.22-7.21,18.5-8.28,24.6-8.28a42.26,42.26,0,0,1,4.61.22A1.85,1.85,0,0,1,303.31,90c.11.78,2.18,19-8.06,29.21-7.22,7.21-18.5,8.3-24.59,8.3m-2.65-3.8c.69,0,1.6.07,2.65.07h0c5.51,0,15.69-.94,22-7.2,7.39-7.38,7.37-20.25,7.12-24.63-4.3-.25-17.14-.34-24.61,7.13s-7.37,20.26-7.12,24.63" transform="translate(-215.01 -28.2)"/><path class="cls-2" d="M260.9,127.47h0c-6.09,0-17.38-1.08-24.59-8.3-10.24-10.25-8.16-28.44-8.06-29.21a1.85,1.85,0,0,1,1.61-1.62,43.2,43.2,0,0,1,4.61-.22c6.09,0,17.38,1.07,24.59,8.28,10.25,10.25,8.17,28.44,8.07,29.21a1.86,1.86,0,0,1-1.62,1.62,40.76,40.76,0,0,1-4.61.23M231.82,91.92c-.25,4.38-.27,17.23,7.12,24.62,6.27,6.26,16.47,7.2,22,7.2h0c1.06,0,2,0,2.65-.06.25-4.38.26-17.25-7.12-24.63s-20.31-7.38-24.61-7.12" transform="translate(-215.01 -28.2)"/><path class="cls-2" d="M278.41,175.3h0a46.71,46.71,0,0,1-5.08-.25,1.85,1.85,0,0,1-1.63-1.62c-.11-.85-2.4-20.92,8.88-32.21,8-7.95,20.41-9.14,27.13-9.14a46.79,46.79,0,0,1,5.09.25,1.85,1.85,0,0,1,1.61,1.62c.12.85,2.4,20.92-8.88,32.21-7.95,8-20.41,9.14-27.13,9.14m-3.13-3.81c4.62.26,19.17.49,27.63-8s8.23-22.94,7.94-27.62c-4.64-.28-19.17-.5-27.62,8s-8.23,22.92-7.95,27.63" transform="translate(-215.01 -28.2)"/><path class="cls-2" d="M252.41,175.3h0c-6.72,0-19.17-1.19-27.13-9.14-11.29-11.28-9-31.36-8.89-32.2a1.85,1.85,0,0,1,1.62-1.62,49.07,49.07,0,0,1,5.1-.25c6.71,0,19.17,1.19,27.11,9.14,11.29,11.29,9,31.36,8.88,32.21a1.84,1.84,0,0,1-1.61,1.62,47,47,0,0,1-5.09.24M220,135.9c-.27,4.69-.4,19.27,7.95,27.62,7,7,18.36,8.05,24.5,8.05h0c1.28,0,2.34,0,3.13-.09.27-4.7.4-19.29-8-27.63s-23-8.24-27.63-8" transform="translate(-215.01 -28.2)"/><path class="cls-2" d="M278.45,175.3H253.69a1.86,1.86,0,1,1,0-3.73h24.76a1.86,1.86,0,0,1,0,3.73" transform="translate(-215.01 -28.2)"/><polygon class="cls-4" points="476.01 110.68 479.1 183.73 503.69 189.85 520.56 106.38 505.45 83.69 476.01 110.68"/><path class="cls-4" d="M648.32,131.24A35.26,35.26,0,1,0,683.58,96a35.26,35.26,0,0,0-35.26,35.25" transform="translate(-215.01 -28.2)"/><path class="cls-4" d="M675.28,75.31a45.18,45.18,0,1,0,45.18-45.18,45.18,45.18,0,0,0-45.18,45.18" transform="translate(-215.01 -28.2)"/><path class="cls-4" d="M636.09,77.73A32.78,32.78,0,1,0,668.86,45a32.77,32.77,0,0,0-32.77,32.77" transform="translate(-215.01 -28.2)"/><path class="cls-4" d="M699.49,122.26A41.47,41.47,0,1,0,741,80.78a41.47,41.47,0,0,0-41.47,41.47" transform="translate(-215.01 -28.2)"/><path class="cls-2" d="M685.6,159.06a1.87,1.87,0,0,1-1.65-1l-20.64-39.35A1.86,1.86,0,1,1,666.6,117l20.64,39.34a1.88,1.88,0,0,1-.78,2.52,1.92,1.92,0,0,1-.86.21" transform="translate(-215.01 -28.2)"/><path class="cls-2" d="M705.43,156a1.53,1.53,0,0,1-.54-.09,1.83,1.83,0,0,1-1.24-2.31l8.52-28.39a1.86,1.86,0,0,1,3.56,1.07l-8.52,28.39a1.83,1.83,0,0,1-1.78,1.32" transform="translate(-215.01 -28.2)"/><path class="cls-2" d="M663.06,148.46a27.77,27.77,0,0,1-13.2-52.23,1.86,1.86,0,1,1,1.76,3.28,24.05,24.05,0,0,0,22.77,42.37,1.86,1.86,0,0,1,1.77,3.28,27.67,27.67,0,0,1-13.1,3.3" transform="translate(-215.01 -28.2)"/><path class="cls-2" d="M673.85,108.05A32.74,32.74,0,1,1,706.6,75.31a32.77,32.77,0,0,1-32.75,32.74m0-61.76a29,29,0,1,0,29,29,29.06,29.06,0,0,0-29-29" transform="translate(-215.01 -28.2)"/><path class="cls-2" d="M731.54,162a17.26,17.26,0,0,1-6.56-1.3,1.86,1.86,0,0,1-1-2.42,1.88,1.88,0,0,1,2.43-1,13.79,13.79,0,0,0,10.37-25.56,1.86,1.86,0,1,1,1.42-3.43A17.52,17.52,0,0,1,747.79,151,17.54,17.54,0,0,1,731.54,162" transform="translate(-215.01 -28.2)"/><path class="cls-2" d="M747.28,151.53a1.87,1.87,0,0,1,0-3.73,34.11,34.11,0,0,0-1.59-68.2,2,2,0,0,1-1.91-1.82,1.86,1.86,0,0,1,1.82-1.91,37.84,37.84,0,0,1,1.75,75.65Z" transform="translate(-215.01 -28.2)"/><path class="cls-2" d="M772.7,91h-.27a1.86,1.86,0,0,1-1.58-2.11,44.29,44.29,0,0,0,.45-6.5,45.78,45.78,0,0,0-45.72-45.74,45.31,45.31,0,0,0-33.21,14.31,1.86,1.86,0,0,1-2.71-2.57,49,49,0,0,1,35.92-15.46A49.5,49.5,0,0,1,775,82.34a47,47,0,0,1-.49,7A1.85,1.85,0,0,1,772.7,91" transform="translate(-215.01 -28.2)"/><path class="cls-2" d="M717.23,126.73a16.22,16.22,0,1,1,16.22-16.23,16.26,16.26,0,0,1-16.22,16.23m0-28.72a12.5,12.5,0,1,0,12.5,12.49A12.51,12.51,0,0,0,717.23,98" transform="translate(-215.01 -28.2)"/><path class="cls-2" d="M735.57,89.56a11.84,11.84,0,1,1,11.85-11.84,11.84,11.84,0,0,1-11.85,11.84m0-20a8.12,8.12,0,1,0,8.12,8.12,8.12,8.12,0,0,0-8.12-8.12" transform="translate(-215.01 -28.2)"/><path class="cls-2" d="M718.7,219.91H689a1.86,1.86,0,0,1-1.86-1.78l-5.42-113.42a1.86,1.86,0,0,1,1.78-1.94,1.82,1.82,0,0,1,1.93,1.77l5.33,111.64h26.15l2.2-46a1.84,1.84,0,0,1,.48-1.16l21-51.87a1.86,1.86,0,1,1,3.44,1.39L722.81,171a0,0,0,0,1,0,0l-2.25,47.12a1.86,1.86,0,0,1-1.85,1.78" transform="translate(-215.01 -28.2)"/><path class="cls-5" d="M1176.3,218.17c-5-16.15-21-27.7-21-27.7s-15.05,12.8-18.82,29.29Z" transform="translate(-215.01 -28.2)"/><path class="cls-5" d="M1112.08,105.14c-4.94,43.45,36,83.73,36,83.73s49-30.14,53.94-73.6-36-83.73-36-83.73-49,30.16-53.92,73.59" transform="translate(-215.01 -28.2)"/><path class="cls-2" d="M1138.14,140.87h0a44.2,44.2,0,0,1-5.07-.25,1.84,1.84,0,0,1-1.62-1.61c-.11-.87-2.42-21,8.92-32.42,8-8,20.53-9.22,27.31-9.22a39.86,39.86,0,0,1,5.06.25,1.86,1.86,0,0,1,1.63,1.61c.11.86,2.42,21.06-8.92,32.41-8,8-20.53,9.22-27.29,9.22m-3.12-3.81c.79,0,1.86.09,3.12.09h0c6.18,0,17.62-1.05,24.66-8.12,8.4-8.41,8.27-23.11,8-27.84-4.65-.28-19.29-.47-27.78,8s-8.27,23.12-8,27.83" transform="translate(-215.01 -28.2)"/><path class="cls-2" d="M1152.81,190.9a1.86,1.86,0,0,1-1.15-.39c-1.87-1.47-45.93-36.51-45.88-80.65s44.16-79.14,46-80.62a1.86,1.86,0,0,1,2.29,0c1.88,1.48,45.94,36.51,45.91,80.63S1155.83,189,1154,190.51a1.83,1.83,0,0,1-1.14.39M1153,33.11c-7,5.86-43.44,38.34-43.48,76.75s36.34,70.9,43.32,76.77c7-5.86,43.44-38.32,43.49-76.77S1160,39,1153,33.11" transform="translate(-215.01 -28.2)"/><path class="cls-2" d="M1174.09,221.2h-42.38a1.85,1.85,0,0,1-1.79-2.35c4.81-17.75,21.18-30.74,21.87-31.27a1.84,1.84,0,0,1,2.3,0c.69.53,17,13.52,21.81,31.28a1.82,1.82,0,0,1-.32,1.61,1.87,1.87,0,0,1-1.48.72m-39.86-3.73h37.36c-4.37-12.84-15.12-22.94-18.66-26-3.54,3.07-14.33,13.19-18.71,26" transform="translate(-215.01 -28.2)"/><path class="cls-2" d="M1147.15,74.21a7.6,7.6,0,1,1,7.61-7.6,7.62,7.62,0,0,1-7.61,7.6m0-11.49a3.88,3.88,0,1,0,3.89,3.89,3.89,3.89,0,0,0-3.89-3.89" transform="translate(-215.01 -28.2)"/><path class="cls-2" d="M1173.89,101.1H1169a1.86,1.86,0,1,1,0-3.73h4.86a15.09,15.09,0,0,0,13.49-21.82,1.87,1.87,0,0,1,3.34-1.67,18.82,18.82,0,0,1-16.83,27.21" transform="translate(-215.01 -28.2)"/><path class="cls-6" d="M461.72,107.6c0,17.28,22.28,108.14,22.28,108.14s40.34-90.86,40.34-108.14a31.31,31.31,0,1,0-62.62,0" transform="translate(-215.01 -28.2)"/><path class="cls-2" d="M484,220.26a1.86,1.86,0,0,1-1.77-1.28c-1.28-4-31.41-97.39-31.41-114.78a33.17,33.17,0,0,1,66.35,0C517.17,121.59,487,215,485.78,219a1.88,1.88,0,0,1-1.78,1.28m0-145.51a29.48,29.48,0,0,0-29.45,29.44c0,14.45,22.85,87.31,29.45,108.1,6.61-20.79,29.46-93.65,29.46-108.1A29.48,29.48,0,0,0,484,74.75" transform="translate(-215.01 -28.2)"/><path class="cls-2" d="M484,74.75a1.85,1.85,0,0,1-1.58-.88L460.14,38a1.86,1.86,0,1,1,3.16-2l18.84,30.3V31.63a1.86,1.86,0,0,1,3.72,0V72.89a1.83,1.83,0,0,1-1.35,1.78,1.46,1.46,0,0,1-.51.08" transform="translate(-215.01 -28.2)"/><path class="cls-2" d="M484,67.55a1.87,1.87,0,0,1-1.54-2.91L502.54,35a1.86,1.86,0,0,1,3.08,2.09L485.54,66.72a1.84,1.84,0,0,1-1.54.83" transform="translate(-215.01 -28.2)"/><path class="cls-2" d="M484,116.71H454.2a1.86,1.86,0,0,1,0-3.72H484a1.86,1.86,0,0,1,0,3.72" transform="translate(-215.01 -28.2)"/><path class="cls-2" d="M508.46,139.28H484a1.86,1.86,0,1,1,0-3.71h24.46a1.86,1.86,0,0,1,0,3.71" transform="translate(-215.01 -28.2)"/><path class="cls-2" d="M494.47,186.88H484a1.86,1.86,0,0,1,0-3.72h10.47a1.86,1.86,0,0,1,0,3.72" transform="translate(-215.01 -28.2)"/><path class="cls-2" d="M484,161.86H466.37a1.86,1.86,0,1,1,0-3.72H484a1.86,1.86,0,0,1,0,3.72" transform="translate(-215.01 -28.2)"/><path class="cls-2" d="M215,278.49h89.33c54.16,0,91.44,27.77,91.44,75.26v.7c0,51.7-44.66,78.43-96,78.43H233.29v91.79H215ZM300.83,416c45.71,0,76.67-23.92,76.67-60.5v-.72c0-39-30.25-59.42-74.56-59.42H233.29V416Z" transform="translate(-215.01 -28.2)"/><rect class="cls-2" x="237.39" y="250.29" width="18.29" height="246.19"/><path class="cls-2" d="M639.85,276.73h17.58L772.09,524.68H752l-31.3-68.94H575.49l-31.3,68.94h-19ZM713,439.22,648.29,296.77,583.22,439.22Z" transform="translate(-215.01 -28.2)"/><polygon class="cls-7" points="672.78 381.12 596.47 381.12 596.47 364.24 672.78 364.24 672.78 288.63 690.37 288.63 690.37 364.24 766.69 364.24 766.69 381.12 690.37 381.12 690.37 456.75 672.78 456.75 672.78 381.12"/><path class="cls-2" d="M1026.35,488.81l12-13.72c27.08,25,52.06,36.58,88.28,36.58,36.93,0,62.26-20.75,62.26-48.89v-.7c0-26-13.72-41.15-69.64-52.4-59.09-12-83-32-83-69.29v-.7c0-36.57,33.41-64.72,79.14-64.72,35.87,0,59.43,9.85,84.4,29.9l-11.6,14.42c-23.22-20.05-46.43-27.78-73.51-27.78-36.23,0-60.14,20.75-60.14,46.43v.7c0,26,13.36,41.85,71.74,53.81,57,11.61,80.9,32,80.9,67.88v.7c0,39.74-34.12,67.17-81.6,67.17-39.38,0-69.64-13-99.18-39.39" transform="translate(-215.01 -28.2)"/><path class="cls-2" d="M215,581.68H234.6c11.87,0,20,6.09,20,16.48v.17c0,11.34-9.79,17.21-21.05,17.21H219v20.13h-4Zm18.81,30.14c10,0,16.82-5.24,16.82-13.26v-.16c0-8.55-6.64-13-16.36-13H219v26.45Z" transform="translate(-215.01 -28.2)"/><path class="cls-2" d="M267.22,596.33H271V607.5c3.08-7,9.64-12.1,17.43-11.79v4.16H288c-9.11,0-17.05,6.86-17.05,19.66v16.13h-3.77Z" transform="translate(-215.01 -28.2)"/><path class="cls-2" d="M295,616.15V616a20.32,20.32,0,0,1,20.28-20.59,20.11,20.11,0,0,1,20.14,20.44V616a20.33,20.33,0,0,1-20.29,20.59A20.1,20.1,0,0,1,295,616.15m36.33,0V616c0-9.48-7.1-17-16.2-17-9.33,0-16,7.64-16,16.89V616c0,9.48,7.1,17,16.19,17,9.34,0,16-7.62,16-16.87" transform="translate(-215.01 -28.2)"/><path class="cls-2" d="M347.8,642.14,350,639a25.7,25.7,0,0,0,15.89,5.55c9,0,15.43-5.16,15.43-15.27v-5.71c-3.4,4.87-8.64,9.11-16.43,9.11-9.49,0-18.89-7.26-18.89-18.51v-.15c0-11.34,9.4-18.66,18.89-18.66a19.54,19.54,0,0,1,16.43,8.8v-7.87h3.78v33.23c0,5.72-1.85,10.19-5,13.35-3.38,3.39-8.48,5.24-14.26,5.24a29.76,29.76,0,0,1-18-6m33.77-28V614c0-9.1-8.09-15-16.27-15s-15.2,5.71-15.2,14.89v.15a14.94,14.94,0,0,0,15.2,15c8.18,0,16.27-6,16.27-15" transform="translate(-215.01 -28.2)"/><path class="cls-2" d="M401,596.33h3.77V607.5c3.09-7,9.64-12.1,17.44-11.79v4.16h-.38c-9.11,0-17.05,6.86-17.05,19.66v16.13H401Z" transform="translate(-215.01 -28.2)"/><path class="cls-2" d="M428.23,624.24v-.16c0-8.18,7-12.8,17.2-12.8a47.11,47.11,0,0,1,13,1.7v-1.7c0-7.95-4.86-12-13-12a26.29,26.29,0,0,0-12.34,3.16l-1.38-3.31a31.47,31.47,0,0,1,14-3.4c5.33,0,9.55,1.47,12.41,4.31,2.62,2.63,4,6.26,4,11.1v24.54h-3.71V629.1a17.85,17.85,0,0,1-15,7.48c-7.33,0-15.2-4.16-15.2-12.34m30.31-3.31v-4.48a51.85,51.85,0,0,0-13.34-1.78c-8.32,0-13,3.7-13,9.17V624c0,5.7,5.39,9,11.41,9,8,0,14.88-4.91,14.88-12.09" transform="translate(-215.01 -28.2)"/><path class="cls-2" d="M477.27,596.33h3.78v7c2.55-4.08,6.09-7.94,13.11-7.94a14.09,14.09,0,0,1,13.26,8.49c2.54-4.41,6.78-8.49,14.19-8.49,9.33,0,15.12,6.56,15.12,16.42v23.84H533V612.29c0-8.49-4.4-13.42-11.65-13.42-6.63,0-12.42,5.08-12.42,13.88v22.91h-3.78v-23.6c0-8.17-4.47-13.19-11.49-13.19S481.05,605,481.05,613v22.69h-3.78Z" transform="translate(-215.01 -28.2)"/><path class="cls-2" d="M548.91,624.24v-.16c0-8.18,7-12.8,17.2-12.8a47.18,47.18,0,0,1,13,1.7v-1.7c0-7.95-4.85-12-13-12a26.27,26.27,0,0,0-12.34,3.16l-1.39-3.31a31.52,31.52,0,0,1,14-3.4c5.31,0,9.56,1.47,12.4,4.31,2.63,2.63,4,6.26,4,11.1v24.54h-3.71V629.1a17.86,17.86,0,0,1-15,7.48c-7.32,0-15.19-4.16-15.19-12.34m30.3-3.31v-4.48a51.81,51.81,0,0,0-13.34-1.78c-8.32,0-12.95,3.7-12.95,9.17V624c0,5.7,5.39,9,11.41,9,8,0,14.88-4.91,14.88-12.09" transform="translate(-215.01 -28.2)"/><path class="cls-2" d="M645.78,616.15V616c0-12.79,9.64-20.59,19.12-20.59,7.86,0,13,4.47,16.2,9.41V579.35h3.77v56.31H681.1v-8.82c-3.4,5.19-8.41,9.73-16.2,9.73-9.49,0-19.12-7.64-19.12-20.43m35.55-.09v-.15c0-10.1-7.87-16.89-16-16.89-8.56,0-15.42,6.25-15.42,16.82V616c0,10.33,7.17,17,15.42,17s16-6.86,16-16.89" transform="translate(-215.01 -28.2)"/><path class="cls-2" d="M698.07,616.06v-.15c0-11.4,8-20.51,18.66-20.51,11,0,18.05,8.95,18.05,20.59a8.79,8.79,0,0,1-.09,1.55H702.07c.69,9.79,7.72,15.49,15.43,15.49a17.62,17.62,0,0,0,13.5-6.18l2.62,2.33c-4,4.31-8.71,7.4-16.27,7.4-10.34,0-19.28-8.25-19.28-20.52m32.62-1.92c-.54-8-5.09-15.27-14.12-15.27-7.77,0-13.8,6.55-14.49,15.27Z" transform="translate(-215.01 -28.2)"/><rect class="cls-2" x="571.89" y="553.48" width="4" height="53.98"/><path class="cls-2" d="M808.17,596.33h3.77v7.33a15.41,15.41,0,0,1,14.19-8.26c10,0,15.74,6.79,15.74,16.19v24.07h-3.78V612.29c0-8.09-4.54-13.42-12.49-13.42-7.71,0-13.65,5.86-13.65,14v22.76h-3.77Z" transform="translate(-215.01 -28.2)"/><path class="cls-2" d="M857,596.33h3.77v7.33a15.39,15.39,0,0,1,14.19-8.26c9.95,0,15.74,6.79,15.74,16.19v24.07H886.9V612.29c0-8.09-4.55-13.42-12.49-13.42-7.71,0-13.66,5.86-13.66,14v22.76H857Z" transform="translate(-215.01 -28.2)"/><path class="cls-2" d="M903.1,616.15V616a20.32,20.32,0,0,1,20.28-20.59,20.11,20.11,0,0,1,20.13,20.44V616a20.32,20.32,0,0,1-20.28,20.59,20.1,20.1,0,0,1-20.12-20.43m36.32,0V616c0-9.48-7.09-17-16.2-17-9.33,0-16,7.64-16,16.89V616c0,9.48,7.09,17,16.19,17,9.33,0,16-7.62,16-16.87" transform="translate(-215.01 -28.2)"/><polygon class="cls-2" points="735.36 568.13 739.76 568.13 754.64 603.21 769.68 568.13 773.92 568.13 756.25 607.76 753.03 607.76 735.36 568.13"/><path class="cls-2" d="M995.63,624.24v-.16c0-8.18,7-12.8,17.2-12.8a47.16,47.16,0,0,1,13,1.7v-1.7c0-7.95-4.85-12-13-12a26.25,26.25,0,0,0-12.33,3.16l-1.39-3.31a31.54,31.54,0,0,1,14-3.4c5.33,0,9.56,1.47,12.41,4.31,2.63,2.63,4,6.26,4,11.1v24.54h-3.71V629.1a17.86,17.86,0,0,1-15,7.48c-7.33,0-15.2-4.16-15.2-12.34m30.31-3.31v-4.48a51.85,51.85,0,0,0-13.34-1.78c-8.33,0-12.95,3.7-12.95,9.17V624c0,5.7,5.39,9,11.4,9,8,0,14.89-4.91,14.89-12.09" transform="translate(-215.01 -28.2)"/><path class="cls-2" d="M1042,616.15V616c0-11,8.8-20.59,20.06-20.59,7.4,0,12,3.39,15.74,7.25l-2.71,2.78c-3.39-3.47-7.24-6.47-13.11-6.47-8.94,0-15.88,7.47-15.88,16.89V616c0,9.48,7.17,17,16.19,17,5.56,0,9.88-2.84,13.19-6.54l2.63,2.31c-4,4.55-8.79,7.78-16,7.78A20.24,20.24,0,0,1,1042,616.15" transform="translate(-215.01 -28.2)"/><path class="cls-2" d="M1090.34,580.9h4.7v5.17h-4.7Zm.46,15.43h3.78v39.34h-3.78Z" transform="translate(-215.01 -28.2)"/><path class="cls-2" d="M1108.3,616.15V616a20.32,20.32,0,0,1,20.28-20.59,20.11,20.11,0,0,1,20.13,20.44V616a20.32,20.32,0,0,1-20.28,20.59,20.1,20.1,0,0,1-20.13-20.43m36.32,0V616c0-9.48-7.1-17-16.19-17-9.33,0-16,7.63-16,16.89V616c0,9.48,7.1,17,16.2,17,9.33,0,16-7.62,16-16.87m-10.95-36.64,4.7,2.31-8.25,8h-3.24Z" transform="translate(-215.01 -28.2)"/><path class="cls-2" d="M1161.89,596.33h3.78v7.33a15.38,15.38,0,0,1,14.19-8.26c10,0,15.73,6.79,15.73,16.19v24.07h-3.78V612.29c0-8.09-4.55-13.42-12.49-13.42-7.71,0-13.65,5.86-13.65,14v22.76h-3.78Z" transform="translate(-215.01 -28.2)"/><path class="cls-2" d="M261,688.86h3.78v7.33a15.39,15.39,0,0,1,14.19-8.26c10,0,15.73,6.78,15.73,16.19v24.06h-3.78V704.84c0-8.11-4.54-13.42-12.49-13.42-7.71,0-13.65,5.85-13.65,14v22.75H261Z" transform="translate(-215.01 -28.2)"/><path class="cls-2" d="M369.46,673.83h3.86l25.13,54.36h-4.4l-6.86-15.11H355.36l-6.87,15.11h-4.17Zm16,35.63-14.19-31.24L357,709.46Z" transform="translate(-215.01 -28.2)"/><rect class="cls-2" x="193.02" y="643.7" width="3.78" height="56.29"/><path class="cls-2" d="M425.21,673.44h4.71v5.16h-4.71Zm.47,15.42h3.78v39.33h-3.78Z" transform="translate(-215.01 -28.2)"/><path class="cls-2" d="M442.79,688.86h3.78v7c2.54-4.09,6.09-7.94,13.11-7.94A14.13,14.13,0,0,1,473,696.42c2.55-4.39,6.78-8.48,14.19-8.48,9.32,0,15.11,6.55,15.11,16.43v23.82h-3.78V704.84c0-8.49-4.39-13.42-11.64-13.42-6.63,0-12.42,5.09-12.42,13.87v22.9h-3.78v-23.6c0-8.17-4.47-13.18-11.48-13.18s-12.57,6.17-12.57,14.11v22.66h-3.78Z" transform="translate(-215.01 -28.2)"/><path class="cls-2" d="M511.89,708.6v-.14c0-11.42,8-20.52,18.67-20.52,11,0,18,8.94,18,20.59a9.48,9.48,0,0,1-.08,1.54H515.9c.7,9.8,7.72,15.51,15.42,15.51,6.09,0,10.26-2.7,13.49-6.17l2.64,2.31c-4,4.31-8.72,7.4-16.28,7.4-10.34,0-19.28-8.25-19.28-20.52m32.62-1.93c-.54-7.94-5.09-15.26-14.11-15.26-7.79,0-13.8,6.54-14.5,15.26Z" transform="translate(-215.01 -28.2)"/><path class="cls-2" d="M215,708.6v-.14c0-11.42,8-20.52,18.67-20.52,11,0,18,8.94,18,20.59a10.08,10.08,0,0,1-.07,1.54H219c.69,9.8,7.71,15.51,15.41,15.51,6.1,0,10.26-2.7,13.49-6.17l2.63,2.31c-4,4.31-8.71,7.4-16.27,7.4C224,729.12,215,720.87,215,708.6m32.62-1.93c-.54-7.94-5.09-15.26-14.11-15.26-7.79,0-13.81,6.54-14.49,15.26Z" transform="translate(-215.01 -28.2)"/><path class="cls-2" d="M558.09,688.86h3.78v7.33A15.37,15.37,0,0,1,576,687.94c10,0,15.73,6.78,15.73,16.19v24.06H588V704.84c0-8.11-4.55-13.42-12.49-13.42-7.7,0-13.65,5.85-13.65,14v22.75h-3.78Z" transform="translate(-215.01 -28.2)"/><path class="cls-2" d="M605.9,718.1V692.33h-5.71v-3.47h5.71V676.3h3.78v12.56h13.8v3.47h-13.8v25.38c0,5.62,3.31,7.63,7.86,7.63a13.13,13.13,0,0,0,5.78-1.4v3.55a14.34,14.34,0,0,1-6.4,1.39c-6.09,0-11-3.31-11-10.79" transform="translate(-215.01 -28.2)"/><path class="cls-2" d="M629.26,708.68v-.15a20.32,20.32,0,0,1,20.28-20.59,20.11,20.11,0,0,1,20.13,20.43v.16a20.32,20.32,0,0,1-20.29,20.59,20.11,20.11,0,0,1-20.13-20.44m36.32,0v-.15c0-9.49-7.1-17-16.2-17-9.34,0-16,7.63-16,16.89v.16c0,9.49,7.1,17,16.19,17,9.34,0,16-7.64,16-16.9" transform="translate(-215.01 -28.2)"/><path class="cls-2" d="M676.38,723.25l2.24-3a23.06,23.06,0,0,0,14.11,5.17c5.32,0,9.48-2.93,9.48-7.48v-.16c0-4.62-4.94-6.31-10.41-7.86-6.39-1.84-13.5-3.78-13.5-10.79V699c0-6.32,5.33-10.87,13-10.87a26.48,26.48,0,0,1,14,4.33l-2,3.14a22.58,22.58,0,0,0-12.11-3.93c-5.39,0-8.94,2.93-8.94,6.88v.13c0,4.41,5.32,6,11,7.64,6.32,1.78,13,4.1,13,11v.15c0,7-6,11.5-13.58,11.5a26.92,26.92,0,0,1-16.12-5.73" transform="translate(-215.01 -28.2)"/><polygon class="cls-2" points="553.24 674.7 536.5 674.7 536.5 671 553.24 671 553.24 654.42 557.09 654.42 557.09 671 573.82 671 573.82 674.7 557.09 674.7 557.09 691.27 553.24 691.27 553.24 674.7"/><path class="cls-2" d="M813.8,720.32l2.62-3c5.94,5.48,11.41,8,19.36,8s13.66-4.55,13.66-10.72v-.16c0-5.7-3-9-15.28-11.49-13-2.62-18.19-7-18.19-15.19v-.15c0-8,7.33-14.2,17.35-14.2A27,27,0,0,1,851.83,680l-2.55,3.17a23.25,23.25,0,0,0-16.12-6.09c-7.95,0-13.19,4.55-13.19,10.19v.15c0,5.71,2.93,9.17,15.73,11.8,12.5,2.53,17.74,7,17.74,14.88v.16C853.44,723,846,729,835.55,729c-8.63,0-15.27-2.87-21.75-8.65" transform="translate(-215.01 -28.2)"/><path class="cls-2" d="M861,716.77v-.14c0-8.17,7-12.81,17.2-12.81a46.93,46.93,0,0,1,13,1.71v-1.71c0-7.93-4.86-12-13-12A26.36,26.36,0,0,0,865.93,695l-1.39-3.32a31.72,31.72,0,0,1,14-3.38c5.32,0,9.56,1.45,12.41,4.31,2.63,2.62,4,6.24,4,11.11v24.51h-3.7v-6.56a17.89,17.89,0,0,1-15,7.48c-7.32,0-15.19-4.17-15.19-12.35m30.31-3.31V709A52.33,52.33,0,0,0,878,707.22c-8.33,0-13,3.7-13,9.17v.15c0,5.72,5.4,9,11.42,9,8,0,14.88-4.95,14.88-12.12" transform="translate(-215.01 -28.2)"/><rect class="cls-2" x="692.49" y="643.7" width="3.78" height="56.29"/><path class="cls-2" d="M923.85,712.93V688.86h3.78v23.37c0,8.09,4.55,13.41,12.49,13.41,7.71,0,13.65-5.86,13.65-14V688.86h3.78v39.33h-3.78v-7.32a15.39,15.39,0,0,1-14.19,8.25c-9.95,0-15.73-6.79-15.73-16.19" transform="translate(-215.01 -28.2)"/><path class="cls-2" d="M967.8,708.68v-.15c0-12.8,9.65-20.59,19.12-20.59,7.87,0,13,4.48,16.2,9.41V671.9h3.78v56.29h-3.78v-8.79c-3.4,5.16-8.4,9.71-16.2,9.71-9.48,0-19.12-7.62-19.12-20.44m35.55-.08v-.14c0-10.11-7.86-16.9-16-16.9-8.56,0-15.42,6.26-15.42,16.81v.16c0,10.33,7.16,17,15.42,17s16-6.87,16-16.9" transform="translate(-215.01 -28.2)"/><path class="cls-2" d="M1016.47,716.77v-.14c0-8.17,7-12.81,17.2-12.81a46.88,46.88,0,0,1,13,1.71v-1.71c0-7.93-4.86-12-13-12A26.33,26.33,0,0,0,1021.4,695l-1.39-3.32a31.71,31.71,0,0,1,14-3.38c5.33,0,9.56,1.45,12.41,4.31,2.63,2.62,4,6.24,4,11.11v24.51h-3.71v-6.56a17.88,17.88,0,0,1-15,7.48c-7.32,0-15.19-4.17-15.19-12.35m30.3-3.31V709a52.3,52.3,0,0,0-13.34-1.77c-8.32,0-13,3.7-13,9.17v.15c0,5.72,5.4,9,11.41,9,8,0,14.88-4.95,14.88-12.12" transform="translate(-215.01 -28.2)"/><path class="cls-2" d="M1066.2,719.71v8.48h-3.78V671.9h3.78v25.75c3.4-5.17,8.41-9.71,16.2-9.71,9.48,0,19.12,7.63,19.12,20.43v.16c0,12.79-9.64,20.59-19.12,20.59-7.86,0-13-4.48-16.2-9.41m31.23-11v-.15c0-10.33-7.17-17-15.42-17s-16,6.86-16,16.9v.14c0,10.11,7.87,16.9,16,16.9,8.56,0,15.42-6.25,15.42-16.82" transform="translate(-215.01 -28.2)"/><rect class="cls-2" x="897.31" y="643.7" width="3.78" height="56.29"/><path class="cls-2" d="M1126.74,708.6v-.14c0-11.42,8-20.52,18.66-20.52,11,0,18.05,8.94,18.05,20.59a10,10,0,0,1-.08,1.54h-32.62c.69,9.8,7.71,15.51,15.42,15.51,6.1,0,10.25-2.7,13.49-6.17l2.62,2.31c-4,4.31-8.71,7.4-16.27,7.4-10.33,0-19.28-8.25-19.28-20.52m32.62-1.93c-.54-7.94-5.09-15.26-14.12-15.26-7.77,0-13.79,6.54-14.48,15.26Z" transform="translate(-215.01 -28.2)"/><path class="cls-2" d="M1169.54,723.25l2.23-3a23.06,23.06,0,0,0,14.11,5.17c5.33,0,9.49-2.93,9.49-7.48v-.16c0-4.62-4.94-6.31-10.41-7.86-6.39-1.84-13.5-3.78-13.5-10.79V699c0-6.32,5.32-10.87,13-10.87a26.48,26.48,0,0,1,14,4.33l-2,3.14a22.62,22.62,0,0,0-12.11-3.93c-5.4,0-9,2.93-9,6.88v.13c0,4.41,5.33,6,11,7.64,6.33,1.78,13,4.1,13,11v.15c0,7-6,11.5-13.57,11.5a26.92,26.92,0,0,1-16.12-5.73" transform="translate(-215.01 -28.2)"/></svg>