<svg id="Capa_1" data-name="Capa 1" xmlns="http://www.w3.org/2000/svg" viewBox="0 0 1133.86 380.63"><defs><style>.cls-1{fill:#fff;}.cls-2{fill:#fff;}.cls-3{fill:#fff;}.cls-4{fill:#fff;}.cls-5{fill:#fff;}.cls-6{fill:#fff;}</style></defs><title>logo</title><path class="cls-1" d="M412.29,209.5h70.45c42.72,0,72.12,21.91,72.12,59.35v.55c0,40.77-35.23,61.86-75.73,61.86H426.71v72.4H412.29ZM480,317.95c36.05,0,60.46-18.86,60.46-47.7v-.56c0-30.78-23.86-46.87-58.8-46.87H426.71v95.13Z" transform="translate(-60.85 -184.09)"/><rect class="cls-1" x="538.65" y="25.4" width="14.42" height="194.16"/><path class="cls-1" d="M747.34,208.11H761.2l90.42,195.55H835.82l-24.69-54.37H696.58l-24.69,54.37h-15ZM805,336.25,754,223.92,702.68,336.25Z" transform="translate(-60.85 -184.09)"/><polygon class="cls-1" points="882.02 128.59 821.83 128.59 821.83 115.27 882.02 115.27 882.02 55.63 895.88 55.63 895.88 115.27 956.08 115.27 956.08 128.59 895.88 128.59 895.88 188.22 882.02 188.22 882.02 128.59"/><path class="cls-1" d="M1052.14,375.36l9.43-10.82c21.36,19.7,41,28.85,69.62,28.85,29.12,0,49.1-16.37,49.1-38.55v-.56c0-20.52-10.82-32.45-54.92-41.33-46.6-9.44-65.46-25.24-65.46-54.64v-.55c0-28.85,26.35-51,62.41-51,28.29,0,46.88,7.76,66.57,23.57l-9.15,11.38c-18.31-15.81-36.62-21.92-58-21.92-28.57,0-47.43,16.37-47.43,36.62v.55c0,20.52,10.54,33,56.58,42.43,44.94,9.16,63.8,25.25,63.8,53.53v.56c0,31.34-26.91,53-64.36,53-31.06,0-54.91-10.26-78.21-31.06" transform="translate(-60.85 -184.09)"/><path class="cls-1" d="M412.45,448.45H427.9c9.36,0,15.81,4.8,15.81,13v.12c0,8.94-7.73,13.56-16.61,13.56H415.61V491h-3.17Zm14.84,23.78c7.91,0,13.26-4.14,13.26-10.45v-.13c0-6.74-5.23-10.28-12.89-10.28h-12v20.86Z" transform="translate(-60.85 -184.09)"/><path class="cls-1" d="M453.62,460h3v8.82c2.44-5.54,7.6-9.55,13.75-9.31v3.29H470c-7.18,0-13.45,5.41-13.45,15.51V491h-3Z" transform="translate(-60.85 -184.09)"/><path class="cls-1" d="M475.52,475.63v-.12a16,16,0,0,1,16-16.24,15.86,15.86,0,0,1,15.87,16.12v.12a16,16,0,0,1-16,16.24,15.86,15.86,0,0,1-15.87-16.12m28.65,0v-.12c0-7.47-5.6-13.44-12.78-13.44-7.36,0-12.64,6-12.64,13.32v.12c0,7.48,5.59,13.44,12.77,13.44,7.36,0,12.65-6,12.65-13.32" transform="translate(-60.85 -184.09)"/><path class="cls-1" d="M517.18,496.13l1.76-2.44a20.25,20.25,0,0,0,12.53,4.38c7.11,0,12.16-4.07,12.16-12v-4.5c-2.68,3.84-6.81,7.18-13,7.18-7.48,0-14.89-5.72-14.89-14.59V474a14.75,14.75,0,0,1,14.89-14.72,15.41,15.41,0,0,1,13,6.94V460h3v26.21a14.37,14.37,0,0,1-4,10.52c-2.68,2.67-6.69,4.13-11.25,4.13a23.45,23.45,0,0,1-14.23-4.74m26.64-22.08v-.12c0-7.18-6.39-11.8-12.83-11.8s-12,4.5-12,11.74V474a11.78,11.78,0,0,0,12,11.86c6.44,0,12.83-4.74,12.83-11.79" transform="translate(-60.85 -184.09)"/><path class="cls-1" d="M559.14,460h3v8.82c2.43-5.54,7.6-9.55,13.75-9.31v3.29h-.3c-7.17,0-13.44,5.41-13.44,15.51V491h-3Z" transform="translate(-60.85 -184.09)"/><path class="cls-1" d="M580.6,482v-.12c0-6.44,5.53-10.09,13.56-10.09a37.43,37.43,0,0,1,10.28,1.33V471.8c0-6.27-3.83-9.48-10.22-9.48a20.81,20.81,0,0,0-9.73,2.49l-1.09-2.61a24.86,24.86,0,0,1,11-2.68c4.19,0,7.54,1.16,9.79,3.41,2.06,2.06,3.16,4.93,3.16,8.76V491h-2.92v-5.16a14.13,14.13,0,0,1-11.86,5.89c-5.78,0-12-3.28-12-9.73m23.9-2.61v-3.53a41.1,41.1,0,0,0-10.53-1.4c-6.56,0-10.21,2.92-10.21,7.23v.13c0,4.49,4.25,7.11,9,7.11,6.32,0,11.74-3.89,11.74-9.55" transform="translate(-60.85 -184.09)"/><path class="cls-1" d="M619.28,460h3v5.53c2-3.23,4.8-6.26,10.34-6.26A11.13,11.13,0,0,1,643.06,466c2-3.47,5.35-6.69,11.19-6.69,7.36,0,11.92,5.17,11.92,13V491h-3V472.59c0-6.69-3.46-10.58-9.18-10.58-5.23,0-9.79,4-9.79,10.94V491h-3V472.41c0-6.45-3.53-10.4-9.07-10.4s-9.91,4.87-9.91,11.13V491h-3Z" transform="translate(-60.85 -184.09)"/><path class="cls-1" d="M675.78,482v-.12c0-6.44,5.53-10.09,13.55-10.09a37.38,37.38,0,0,1,10.28,1.33V471.8c0-6.27-3.83-9.48-10.21-9.48a20.82,20.82,0,0,0-9.74,2.49l-1.09-2.61a24.88,24.88,0,0,1,11-2.68c4.19,0,7.54,1.16,9.79,3.41,2.06,2.06,3.17,4.93,3.17,8.76V491h-2.93v-5.16a14.12,14.12,0,0,1-11.86,5.89c-5.77,0-12-3.28-12-9.73m23.89-2.61v-3.53a41,41,0,0,0-10.51-1.4c-6.57,0-10.22,2.92-10.22,7.23v.13c0,4.49,4.26,7.11,9,7.11,6.32,0,11.73-3.89,11.73-9.55" transform="translate(-60.85 -184.09)"/><path class="cls-1" d="M752.17,475.63v-.12c0-10.09,7.6-16.24,15.09-16.24,6.2,0,10.21,3.53,12.77,7.42V446.63h3V491h-3v-6.94c-2.67,4.08-6.62,7.67-12.77,7.67-7.48,0-15.09-6-15.09-16.12m28-.06v-.11a13,13,0,0,0-12.66-13.33c-6.75,0-12.16,4.93-12.16,13.26v.12c0,8.15,5.65,13.38,12.16,13.38a13,13,0,0,0,12.66-13.32" transform="translate(-60.85 -184.09)"/><path class="cls-1" d="M793.4,475.57v-.11c0-9,6.33-16.18,14.72-16.18,8.7,0,14.23,7.05,14.23,16.24a7.19,7.19,0,0,1-.07,1.22H796.56c.55,7.72,6.08,12.23,12.17,12.23a13.92,13.92,0,0,0,10.64-4.87l2.07,1.83c-3.17,3.41-6.87,5.84-12.84,5.84-8.15,0-15.21-6.51-15.21-16.18m25.73-1.52c-.43-6.26-4-12-11.13-12-6.14,0-10.88,5.17-11.43,12Z" transform="translate(-60.85 -184.09)"/><rect class="cls-1" x="802.6" y="264.35" width="3.17" height="42.58"/><path class="cls-1" d="M880.24,460h3v5.78a12.15,12.15,0,0,1,11.2-6.52c7.85,0,12.41,5.36,12.41,12.77v19h-3V472.59c0-6.39-3.59-10.58-9.85-10.58-6.08,0-10.77,4.62-10.77,11.07V491h-3Z" transform="translate(-60.85 -184.09)"/><path class="cls-1" d="M918.73,460h3v5.78a12.13,12.13,0,0,1,11.18-6.52c7.85,0,12.41,5.36,12.41,12.77v19h-3V472.59c0-6.39-3.59-10.58-9.85-10.58-6.08,0-10.76,4.62-10.76,11.07V491h-3Z" transform="translate(-60.85 -184.09)"/><path class="cls-1" d="M955.1,475.63v-.12a16,16,0,0,1,16-16.24A15.86,15.86,0,0,1,987,475.39v.12a16,16,0,0,1-16,16.24,15.86,15.86,0,0,1-15.87-16.12m28.64,0v-.12c0-7.47-5.59-13.44-12.77-13.44-7.36,0-12.65,6-12.65,13.32v.12c0,7.48,5.6,13.44,12.78,13.44,7.36,0,12.65-6,12.65-13.32" transform="translate(-60.85 -184.09)"/><polygon class="cls-1" points="931.53 275.91 935 275.91 946.73 303.58 958.59 275.91 961.94 275.91 948.01 307.17 945.45 307.17 931.53 275.91"/><path class="cls-1" d="M1028.08,482v-.12c0-6.44,5.53-10.09,13.56-10.09a37.32,37.32,0,0,1,10.27,1.33V471.8c0-6.27-3.83-9.48-10.21-9.48a20.78,20.78,0,0,0-9.73,2.49l-1.09-2.61a24.83,24.83,0,0,1,11-2.68c4.2,0,7.54,1.16,9.78,3.41,2.07,2.06,3.16,4.93,3.16,8.76V491h-2.92v-5.16a14.12,14.12,0,0,1-11.85,5.89c-5.78,0-12-3.28-12-9.73m23.9-2.61v-3.53a41.12,41.12,0,0,0-10.52-1.4c-6.57,0-10.22,2.92-10.22,7.23v.13c0,4.49,4.25,7.11,9,7.11,6.33,0,11.74-3.89,11.74-9.55" transform="translate(-60.85 -184.09)"/><path class="cls-1" d="M1064.63,475.63v-.12c0-8.69,6.93-16.24,15.81-16.24,5.84,0,9.49,2.68,12.41,5.72l-2.13,2.19c-2.67-2.74-5.72-5.11-10.34-5.11-7.05,0-12.53,5.9-12.53,13.32v.12c0,7.48,5.66,13.44,12.77,13.44,4.38,0,7.78-2.25,10.4-5.17l2.07,1.83c-3.16,3.58-6.93,6.14-12.65,6.14a16,16,0,0,1-15.81-16.12" transform="translate(-60.85 -184.09)"/><path class="cls-1" d="M1102.76,447.84h3.71v4.07h-3.71Zm.36,12.16h3v31h-3Z" transform="translate(-60.85 -184.09)"/><path class="cls-1" d="M1116.93,475.63v-.12a16,16,0,0,1,16-16.24,15.86,15.86,0,0,1,15.88,16.12v.12a16,16,0,0,1-16,16.24,15.86,15.86,0,0,1-15.87-16.12m28.64,0v-.12c0-7.48-5.59-13.44-12.78-13.44-7.36,0-12.64,6-12.64,13.33v.12c0,7.48,5.59,13.44,12.77,13.44,7.36,0,12.65-6,12.65-13.32m-8.64-28.89,3.71,1.83-6.51,6.26h-2.55Z" transform="translate(-60.85 -184.09)"/><path class="cls-1" d="M1159.2,460h3v5.78a12.13,12.13,0,0,1,11.19-6.52c7.84,0,12.4,5.36,12.4,12.77v19h-3V472.59c0-6.39-3.59-10.58-9.85-10.58-6.08,0-10.77,4.62-10.77,11.07V491h-3Z" transform="translate(-60.85 -184.09)"/><path class="cls-1" d="M448.7,533h3v5.77a12.15,12.15,0,0,1,11.19-6.51c7.85,0,12.41,5.36,12.41,12.77v19h-3V545.57c0-6.39-3.59-10.59-9.85-10.59-6.08,0-10.77,4.62-10.77,11.08V564h-3Z" transform="translate(-60.85 -184.09)"/><path class="cls-1" d="M534.25,521.12h3L557.12,564h-3.46l-5.42-11.93H523.13L517.71,564h-3.28Zm12.66,28.1-11.19-24.63-11.25,24.63Z" transform="translate(-60.85 -184.09)"/><rect class="cls-1" x="503.81" y="335.51" width="2.98" height="44.39"/><path class="cls-1" d="M578.23,520.82h3.71v4.07h-3.71Zm.36,12.17h3v31h-3Z" transform="translate(-60.85 -184.09)"/><path class="cls-1" d="M592.09,533h3v5.53c2-3.23,4.81-6.26,10.34-6.26a11.13,11.13,0,0,1,10.46,6.69c2-3.46,5.35-6.69,11.19-6.69,7.36,0,11.92,5.17,11.92,13V564h-3V545.57c0-6.69-3.46-10.59-9.18-10.59-5.23,0-9.79,4-9.79,10.95V564h-3V545.39c0-6.45-3.52-10.41-9.06-10.41s-9.92,4.87-9.92,11.13V564h-3Z" transform="translate(-60.85 -184.09)"/><path class="cls-1" d="M646.58,548.55v-.11c0-9,6.33-16.18,14.72-16.18,8.7,0,14.23,7.05,14.23,16.24a7.52,7.52,0,0,1-.06,1.22H649.75c.54,7.72,6.08,12.23,12.16,12.23a13.92,13.92,0,0,0,10.64-4.87l2.07,1.83c-3.16,3.41-6.87,5.84-12.83,5.84-8.15,0-15.21-6.51-15.21-16.18M672.31,547c-.43-6.27-4-12-11.13-12-6.15,0-10.89,5.17-11.43,12Z" transform="translate(-60.85 -184.09)"/><path class="cls-1" d="M412.29,548.55v-.11c0-9,6.32-16.18,14.71-16.18,8.7,0,14.23,7.05,14.23,16.24a7.52,7.52,0,0,1-.06,1.22H415.45c.54,7.72,6.08,12.23,12.16,12.23a13.9,13.9,0,0,0,10.64-4.87l2.07,1.83c-3.17,3.41-6.87,5.84-12.83,5.84-8.15,0-15.21-6.51-15.21-16.18M438,547c-.42-6.27-4-12-11.13-12-6.14,0-10.89,5.17-11.43,12Z" transform="translate(-60.85 -184.09)"/><path class="cls-1" d="M683,533h3v5.77a12.15,12.15,0,0,1,11.19-6.51c7.85,0,12.41,5.36,12.41,12.77v19h-3V545.57c0-6.39-3.58-10.59-9.85-10.59-6.08,0-10.76,4.62-10.76,11.08V564h-3Z" transform="translate(-60.85 -184.09)"/><path class="cls-1" d="M720.72,556V535.72h-4.5V533h4.5v-9.92h3V533h10.89v2.73H723.7v20c0,4.45,2.62,6,6.2,6a10.34,10.34,0,0,0,4.57-1.09v2.8a11.34,11.34,0,0,1-5,1.1c-4.8,0-8.7-2.61-8.7-8.52" transform="translate(-60.85 -184.09)"/><path class="cls-1" d="M739.14,548.61v-.12a16,16,0,0,1,16-16.24A15.86,15.86,0,0,1,771,548.37v.12a16,16,0,0,1-16,16.24,15.86,15.86,0,0,1-15.87-16.12m28.64,0v-.12c0-7.48-5.59-13.44-12.77-13.44-7.36,0-12.65,6-12.65,13.32v.12c0,7.48,5.59,13.45,12.77,13.45,7.36,0,12.65-6,12.65-13.32" transform="translate(-60.85 -184.09)"/><path class="cls-1" d="M776.31,560.11l1.76-2.37a18.2,18.2,0,0,0,11.13,4.08c4.19,0,7.48-2.31,7.48-5.9v-.11c0-3.66-3.89-5-8.21-6.21-5-1.47-10.64-3-10.64-8.51v-.12c0-5,4.2-8.57,10.21-8.57a20.89,20.89,0,0,1,11,3.41l-1.58,2.49a17.88,17.88,0,0,0-9.55-3.1c-4.26,0-7.06,2.31-7.06,5.41v.12c0,3.46,4.19,4.75,8.64,6,5,1.39,10.22,3.22,10.22,8.7v.12c0,5.53-4.74,9.06-10.7,9.06a21.26,21.26,0,0,1-12.71-4.5" transform="translate(-60.85 -184.09)"/><polygon class="cls-1" points="787.89 359.96 774.7 359.96 774.7 357.04 787.89 357.04 787.89 343.96 790.94 343.96 790.94 357.04 804.13 357.04 804.13 359.96 790.94 359.96 790.94 373.03 787.89 373.03 787.89 359.96"/><path class="cls-1" d="M884.68,557.79l2.07-2.37c4.68,4.32,9,6.32,15.27,6.32s10.77-3.59,10.77-8.45v-.12c0-4.5-2.37-7.11-12-9.07-10.21-2.06-14.35-5.53-14.35-12V532c0-6.32,5.78-11.19,13.69-11.19A21.24,21.24,0,0,1,914.66,526l-2,2.5a18.35,18.35,0,0,0-12.71-4.8c-6.26,0-10.4,3.59-10.4,8v.11c0,4.51,2.31,7.24,12.4,9.31,9.85,2,14,5.54,14,11.73V553c0,6.87-5.9,11.61-14.11,11.61-6.81,0-12-2.25-17.15-6.81" transform="translate(-60.85 -184.09)"/><path class="cls-1" d="M921.9,555v-.12c0-6.44,5.53-10.09,13.56-10.09a37.69,37.69,0,0,1,10.28,1.33v-1.33c0-6.27-3.84-9.48-10.23-9.48a20.82,20.82,0,0,0-9.73,2.49l-1.09-2.61a25,25,0,0,1,11-2.68c4.19,0,7.54,1.16,9.79,3.41,2.07,2.06,3.16,4.92,3.16,8.76V564h-2.91v-5.17a14.13,14.13,0,0,1-11.86,5.9c-5.78,0-12-3.28-12-9.74m23.9-2.61v-3.53a41.1,41.1,0,0,0-10.52-1.4c-6.57,0-10.21,2.91-10.21,7.23v.12c0,4.5,4.25,7.12,9,7.12,6.32,0,11.74-3.9,11.74-9.55" transform="translate(-60.85 -184.09)"/><rect class="cls-1" x="897.72" y="335.51" width="2.98" height="44.39"/><path class="cls-1" d="M971.46,552V533h3v18.42c0,6.39,3.59,10.58,9.84,10.58,6.09,0,10.77-4.62,10.77-11.06V533h3v31h-3v-5.78a12.14,12.14,0,0,1-11.19,6.51c-7.84,0-12.41-5.36-12.41-12.77" transform="translate(-60.85 -184.09)"/><path class="cls-1" d="M1006.13,548.61v-.12c0-10.09,7.61-16.24,15.08-16.24,6.21,0,10.22,3.53,12.77,7.42V519.61h3V564h-3v-6.93c-2.68,4.07-6.63,7.66-12.77,7.66-7.48,0-15.08-6-15.08-16.12m28-.06v-.11a13,13,0,0,0-12.65-13.33c-6.75,0-12.16,4.93-12.16,13.26v.12c0,8.15,5.65,13.38,12.16,13.38a13,13,0,0,0,12.65-13.32" transform="translate(-60.85 -184.09)"/><path class="cls-1" d="M1044.5,555v-.12c0-6.44,5.53-10.09,13.56-10.09a37.62,37.62,0,0,1,10.28,1.33v-1.33c0-6.27-3.84-9.48-10.23-9.48a20.78,20.78,0,0,0-9.72,2.49l-1.09-2.61a25,25,0,0,1,11-2.68c4.19,0,7.54,1.16,9.79,3.41,2.07,2.06,3.17,4.92,3.17,8.76V564h-2.92v-5.17a14.11,14.11,0,0,1-11.86,5.9c-5.77,0-12-3.28-12-9.74m23.9-2.61v-3.53a41.1,41.1,0,0,0-10.52-1.4c-6.57,0-10.21,2.91-10.21,7.23v.12c0,4.5,4.26,7.12,9,7.12,6.33,0,11.74-3.9,11.74-9.55" transform="translate(-60.85 -184.09)"/><path class="cls-1" d="M1083.73,557.31V564h-3V519.6h3v20.31c2.68-4.07,6.63-7.66,12.76-7.66,7.48,0,15.09,6,15.09,16.12v.12c0,10.1-7.61,16.24-15.09,16.24-6.2,0-10.21-3.53-12.76-7.42m24.63-8.7v-.12c0-8.14-5.66-13.38-12.16-13.38a13,13,0,0,0-12.65,13.32v.12a13,13,0,0,0,12.65,13.32c6.75,0,12.16-4.93,12.16-13.26" transform="translate(-60.85 -184.09)"/><rect class="cls-1" x="1059.24" y="335.51" width="2.98" height="44.39"/><path class="cls-1" d="M1131.46,548.55v-.11c0-9,6.33-16.18,14.72-16.18,8.7,0,14.23,7.05,14.23,16.24a7.88,7.88,0,0,1-.06,1.22h-25.72c.55,7.72,6.08,12.23,12.16,12.23a13.91,13.91,0,0,0,10.64-4.87l2.07,1.83c-3.16,3.41-6.87,5.84-12.83,5.84-8.14,0-15.21-6.51-15.21-16.18M1157.2,547c-.43-6.27-4-12-11.13-12-6.14,0-10.88,5.17-11.43,12Z" transform="translate(-60.85 -184.09)"/><path class="cls-1" d="M1165.22,560.11l1.76-2.37a18.23,18.23,0,0,0,11.14,4.08c4.2,0,7.48-2.31,7.48-5.9v-.11c0-3.66-3.89-5-8.21-6.21-5-1.47-10.64-3-10.64-8.51v-.12c0-5,4.2-8.57,10.22-8.57a20.87,20.87,0,0,1,11,3.41l-1.58,2.49a17.86,17.86,0,0,0-9.54-3.1c-4.26,0-7.06,2.31-7.06,5.41v.12c0,3.46,4.2,4.75,8.63,6,5,1.39,10.22,3.22,10.22,8.7v.12c0,5.53-4.74,9.06-10.7,9.06a21.28,21.28,0,0,1-12.71-4.5" transform="translate(-60.85 -184.09)"/><path class="cls-2" d="M173.63,308.77,91.22,379.66A66.16,66.16,0,0,0,176,419.17Z" transform="translate(-60.85 -184.09)"/><path class="cls-1" d="M149.89,421.08A67.5,67.5,0,0,1,86.5,376.76l2.29-.84a65,65,0,0,0,83.25,38.78l.84,2.3a67,67,0,0,1-23,4.08" transform="translate(-60.85 -184.09)"/><polygon class="cls-1" points="111.93 231.75 109.48 231.7 111.63 120.93 28.21 193.86 26.6 192.02 114.18 115.44 111.93 231.75"/><path class="cls-1" d="M154.87,408h0A7.62,7.62,0,0,1,148,397.17a7.66,7.66,0,0,1,6.91-4.41,7.52,7.52,0,0,1,3.21.71A7.62,7.62,0,0,1,154.87,408m0-12.79a5.17,5.17,0,0,0-4.86,6.94,5.18,5.18,0,0,0,4.86,3.4,5.17,5.17,0,0,0,2.18-9.86,5.13,5.13,0,0,0-2.18-.49" transform="translate(-60.85 -184.09)"/><path class="cls-1" d="M155.52,361.88h0a9.46,9.46,0,0,1-8.57-13.45,9.45,9.45,0,0,1,12.57-4.58,9.46,9.46,0,0,1-4,18m0-16.47a7,7,0,0,0-6.36,4.06,7,7,0,0,0,3.39,9.31,7.17,7.17,0,0,0,9.31-3.39,7,7,0,0,0-3.39-9.31,7,7,0,0,0-3-.66" transform="translate(-60.85 -184.09)"/><path class="cls-1" d="M123.69,358.05l-.79,0a11.8,11.8,0,0,1-8.16-4l1.84-1.61a9.44,9.44,0,0,0,14.19-12.45l1.84-1.62a11.91,11.91,0,0,1-1.09,16.77,11.79,11.79,0,0,1-7.83,3" transform="translate(-60.85 -184.09)"/><path class="cls-1" d="M110.17,392.86h0a5.93,5.93,0,0,1-2.54-.56,6,6,0,0,1-2.91-8,6.14,6.14,0,0,1,8-2.92,6,6,0,0,1-2.54,11.48m0-9.6a3.58,3.58,0,0,0-1.51,6.81,3.66,3.66,0,0,0,4.75-1.73,3.57,3.57,0,0,0-3.24-5.08" transform="translate(-60.85 -184.09)"/><path class="cls-1" d="M136,384.34h0a9.47,9.47,0,0,1-8.57-13.46,9.51,9.51,0,0,1,8.58-5.46,9.34,9.34,0,0,1,4,.89,9.46,9.46,0,0,1-4,18m0-16.47a7,7,0,0,0-6.59,9.41,7,7,0,0,0,3.63,4,7.16,7.16,0,0,0,9.31-3.39,7,7,0,0,0-3.39-9.31,6.94,6.94,0,0,0-3-.66" transform="translate(-60.85 -184.09)"/><path class="cls-1" d="M173.16,326.91a7.32,7.32,0,0,1,.52-14.62l-.09,2.45a4.86,4.86,0,1,0-.35,9.72Z" transform="translate(-60.85 -184.09)"/><path class="cls-3" d="M228,280.1c-6.6,7.56-4.12,20.5-4.12,20.5s13.16.7,19.75-6.86,4.12-20.5,4.12-20.5-13.16-.7-19.75,6.86" transform="translate(-60.85 -184.09)"/><path class="cls-3" d="M225.93,254.38c-4.86,7.29-1.25,18.23-1.25,18.23s11.48-.88,16.34-8.17,1.25-18.23,1.25-18.23-11.48.88-16.34,8.17" transform="translate(-60.85 -184.09)"/><path class="cls-3" d="M203.87,261.95c5.71,6.68,15.83,7.4,15.83,7.4s.87-10.11-4.84-16.79S199,245.15,199,245.15s-.87,10.11,4.85,16.8" transform="translate(-60.85 -184.09)"/><path class="cls-3" d="M196.65,293.85c6,7,18.09,6.49,18.09,6.49s2.39-11.88-3.59-18.88-18.1-6.49-18.1-6.49-2.39,11.88,3.6,18.88" transform="translate(-60.85 -184.09)"/><path class="cls-3" d="M209,226.58c1.34,8.66,11.39,14.28,11.39,14.28s7.87-8.41,6.52-17.06-11.39-14.28-11.39-14.28-7.87,8.41-6.52,17.06" transform="translate(-60.85 -184.09)"/><path class="cls-1" d="M220.09,322.63a1.22,1.22,0,0,1-1.22-1.23V240.65a1.22,1.22,0,1,1,2.45,0V321.4a1.22,1.22,0,0,1-1.22,1.23" transform="translate(-60.85 -184.09)"/><path class="cls-1" d="M220.09,242.27a1.26,1.26,0,0,1-.76-.26c-.4-.31-9.82-7.8-9.82-17.33s9.43-17,9.82-17.34a1.22,1.22,0,0,1,1.51,0c.4.31,9.83,7.8,9.83,17.34s-9.43,17-9.83,17.33a1.23,1.23,0,0,1-.75.26m0-32.36c-2.15,1.92-8.14,7.89-8.14,14.77s6,12.85,8.14,14.77c2.15-1.92,8.14-7.89,8.14-14.77s-6-12.85-8.14-14.77" transform="translate(-60.85 -184.09)"/><path class="cls-1" d="M223.49,271.34h0a25.43,25.43,0,0,1-3-.15,1.21,1.21,0,0,1-1.06-1.06c-.06-.51-1.43-12.48,5.31-19.21,4.75-4.75,12.18-5.46,16.18-5.46a27.44,27.44,0,0,1,3,.15,1.22,1.22,0,0,1,1.06,1.07c.06.5,1.43,12.47-5.31,19.21-4.75,4.75-12.17,5.46-16.17,5.46m-1.75-2.5c.45,0,1,.05,1.74.05h0c3.62,0,10.32-.62,14.45-4.74,4.85-4.86,4.84-13.32,4.68-16.2-2.83-.16-11.28-.23-16.19,4.69s-4.85,13.32-4.68,16.2" transform="translate(-60.85 -184.09)"/><path class="cls-1" d="M217.07,271.33h0c-4,0-11.43-.71-16.18-5.46-6.74-6.74-5.38-18.7-5.31-19.21a1.2,1.2,0,0,1,1.06-1.07,27,27,0,0,1,3-.15c4,0,11.43.71,16.17,5.46,6.74,6.73,5.38,18.7,5.31,19.21a1.22,1.22,0,0,1-1.07,1.06,25.35,25.35,0,0,1-3,.15m-19.14-23.39c-.17,2.88-.17,11.34,4.68,16.2,4.13,4.13,10.82,4.74,14.45,4.74.7,0,1.29,0,1.75-.05.15-2.88.17-11.34-4.7-16.2s-13.36-4.85-16.19-4.69" transform="translate(-60.85 -184.09)"/><path class="cls-1" d="M228.59,302.81h0a27.94,27.94,0,0,1-3.34-.17,1.21,1.21,0,0,1-1.07-1.06c-.07-.56-1.58-13.76,5.85-21.19,5.23-5.23,13.42-6,17.84-6a29.41,29.41,0,0,1,3.35.16,1.22,1.22,0,0,1,1.06,1.06c.07.57,1.58,13.77-5.85,21.19-5.24,5.23-13.43,6-17.84,6m-2.06-2.52c3,.18,12.61.33,18.18-5.23s5.42-15.09,5.23-18.18c-3-.19-12.62-.32-18.18,5.23s-5.41,15.09-5.23,18.17" transform="translate(-60.85 -184.09)"/><path class="cls-1" d="M211.48,302.8h0c-4.42,0-12.61-.78-17.84-6-7.43-7.43-5.92-20.63-5.86-21.19a1.22,1.22,0,0,1,1.07-1.07,30.39,30.39,0,0,1,3.35-.17c4.42,0,12.61.78,17.84,6,7.42,7.42,5.92,20.62,5.85,21.19a1.22,1.22,0,0,1-1.07,1.06,28.28,28.28,0,0,1-3.34.17m-21.34-25.92c-.19,3.09-.26,12.68,5.23,18.17,4.61,4.61,12.07,5.29,16.11,5.29h0c.84,0,1.54,0,2.06-.06.18-3.08.26-12.68-5.23-18.18s-15.13-5.42-18.18-5.23" transform="translate(-60.85 -184.09)"/><path class="cls-1" d="M228.61,302.8H212.31a1.23,1.23,0,0,1,0-2.45h16.29a1.23,1.23,0,1,1,0,2.45" transform="translate(-60.85 -184.09)"/><polygon class="cls-4" points="70.9 71.55 72.92 119.61 89.11 123.63 100.21 68.71 90.27 53.79 70.9 71.55"/><path class="cls-4" d="M103.66,250.62a23.2,23.2,0,1,0,23.2-23.2,23.2,23.2,0,0,0-23.2,23.2" transform="translate(-60.85 -184.09)"/><path class="cls-4" d="M121.4,213.81a29.73,29.73,0,1,0,29.73-29.72,29.72,29.72,0,0,0-29.73,29.72" transform="translate(-60.85 -184.09)"/><path class="cls-4" d="M95.61,215.41a21.56,21.56,0,1,0,21.57-21.56,21.56,21.56,0,0,0-21.57,21.56" transform="translate(-60.85 -184.09)"/><path class="cls-4" d="M137.33,244.7a27.28,27.28,0,1,0,27.28-27.28,27.28,27.28,0,0,0-27.28,27.28" transform="translate(-60.85 -184.09)"/><path class="cls-1" d="M128.19,268.91a1.21,1.21,0,0,1-1.08-.66l-13.58-25.88a1.22,1.22,0,1,1,2.16-1.14l13.58,25.89a1.22,1.22,0,0,1-.51,1.65,1.3,1.3,0,0,1-.57.14" transform="translate(-60.85 -184.09)"/><path class="cls-1" d="M141.23,266.89a1.2,1.2,0,0,1-.35-.06,1.22,1.22,0,0,1-.82-1.52l5.61-18.67a1.22,1.22,0,0,1,2.34.7L142.4,266a1.23,1.23,0,0,1-1.17.87" transform="translate(-60.85 -184.09)"/><path class="cls-1" d="M113.36,261.94a18.27,18.27,0,0,1-8.69-34.36,1.23,1.23,0,0,1,1.17,2.16,15.82,15.82,0,1,0,15,27.88,1.22,1.22,0,0,1,1.16,2.15,18.14,18.14,0,0,1-8.62,2.17" transform="translate(-60.85 -184.09)"/><path class="cls-1" d="M120.46,235.35A21.54,21.54,0,1,1,142,213.81a21.56,21.56,0,0,1-21.54,21.54m0-40.63a19.09,19.09,0,1,0,19.09,19.09,19.11,19.11,0,0,0-19.09-19.09" transform="translate(-60.85 -184.09)"/><path class="cls-1" d="M158.41,270.82a11.47,11.47,0,0,1-4.31-.85,1.22,1.22,0,0,1,.92-2.27,9.07,9.07,0,1,0,6.83-16.82,1.22,1.22,0,0,1,.92-2.27,11.52,11.52,0,0,1-4.35,22.2" transform="translate(-60.85 -184.09)"/><path class="cls-1" d="M168.77,264a1.23,1.23,0,0,1,0-2.45,22.44,22.44,0,0,0-1-44.87,1.2,1.2,0,0,1-1.25-1.19,1.22,1.22,0,0,1,1.2-1.25A24.89,24.89,0,0,1,168.8,264Z" transform="translate(-60.85 -184.09)"/><path class="cls-1" d="M185.49,224.12l-.18,0a1.21,1.21,0,0,1-1-1.38,30.16,30.16,0,0,0-29.79-34.37,29.79,29.79,0,0,0-21.85,9.41,1.23,1.23,0,1,1-1.78-1.69,32.24,32.24,0,0,1,23.63-10.16A32.57,32.57,0,0,1,187,218.44a31.43,31.43,0,0,1-.33,4.63,1.22,1.22,0,0,1-1.21,1.05" transform="translate(-60.85 -184.09)"/><path class="cls-1" d="M149,247.64A10.67,10.67,0,1,1,159.67,237,10.69,10.69,0,0,1,149,247.64m0-18.9a8.23,8.23,0,1,0,8.22,8.23,8.23,8.23,0,0,0-8.22-8.23" transform="translate(-60.85 -184.09)"/><path class="cls-1" d="M161.06,223.2a7.79,7.79,0,1,1,7.8-7.79,7.8,7.8,0,0,1-7.8,7.79m0-13.14a5.34,5.34,0,1,0,5.34,5.35,5.35,5.35,0,0,0-5.34-5.35" transform="translate(-60.85 -184.09)"/><path class="cls-1" d="M150,308.95H130.42a1.23,1.23,0,0,1-1.22-1.17l-3.56-74.62a1.21,1.21,0,0,1,1.16-1.28,1.19,1.19,0,0,1,1.27,1.17l3.51,73.45h17.21l1.44-30.25a1.24,1.24,0,0,1,.31-.77l13.84-34.13a1.22,1.22,0,0,1,2.27.91l-14,34.5a0,0,0,0,1,0,0l-1.48,31a1.22,1.22,0,0,1-1.22,1.17" transform="translate(-60.85 -184.09)"/><path class="cls-5" d="M199.08,406.09c5.17-9.86,3.11-22.67,3.11-22.67s-13-1.05-22.38,4.87Z" transform="translate(-60.85 -184.09)"/><path class="cls-5" d="M221.79,323.62c-22.51,17.91-22.2,55.71-22.2,55.71s36.81,8.76,59.33-9.15,22.18-55.71,22.18-55.71-36.82-8.76-59.31,9.16" transform="translate(-60.85 -184.09)"/><path class="cls-1" d="M234.28,360.78h0c-10.55,0-18.86-10.44-19.21-10.88a1.24,1.24,0,0,1,0-1.52c.35-.44,8.67-10.91,19.23-10.92s18.88,10.44,19.22,10.89a1.23,1.23,0,0,1,0,1.51c-.35.45-8.66,10.92-19.22,10.93m-16.66-11.64c2.06,2.32,8.83,9.19,16.64,9.19v1.23l0-1.23c7.82,0,14.6-6.91,16.66-9.24-2.06-2.31-8.83-9.19-16.64-9.19s-14.61,6.91-16.67,9.23" transform="translate(-60.85 -184.09)"/><path class="cls-1" d="M210.95,383.27h0a82.53,82.53,0,0,1-9.39-.46,1.22,1.22,0,0,1-1.07-1.06c-.19-1.56-4.38-38.36,16.17-58.86,14.42-14.39,37.24-16.54,49.56-16.54a85.62,85.62,0,0,1,9.36.45,1.22,1.22,0,0,1,1.07,1.07c.19,1.56,4.39,38.37-16.15,58.86-14.43,14.39-37.24,16.54-49.55,16.54m-8.12-2.79c1.42.13,4.32.33,8.12.33,11.94,0,34-2.05,47.82-15.82,17.89-17.86,16.07-49.89,15.55-55.87-1.42-.12-4.31-.33-8.1-.33-11.94,0-34,2.05-47.83,15.82-17.92,17.88-16.08,49.89-15.57,55.86" transform="translate(-60.85 -184.09)"/><path class="cls-1" d="M197.51,406.82a1.22,1.22,0,0,1-.87-.36l-19.71-19.72a1.23,1.23,0,0,1-.35-1,1.25,1.25,0,0,1,.61-.9c6.63-3.8,14.55-4.6,20-4.6a43.09,43.09,0,0,1,4.69.22,1.22,1.22,0,0,1,1.07,1.07c.07.57,1.63,14.22-4.41,24.7a1.21,1.21,0,0,1-.9.6h-.16m-17.68-20.63,17.38,17.38c3.94-8,3.64-17.7,3.43-20.78-.77-.05-2-.12-3.42-.12-4.78,0-11.53.63-17.39,3.52" transform="translate(-60.85 -184.09)"/><path class="cls-1" d="M256,327h0a5,5,0,0,1-3.54-8.55,5.13,5.13,0,0,1,7.07,0A5,5,0,0,1,256,327m0-7.57a2.56,2.56,0,0,0-1.81,4.36,2.62,2.62,0,0,0,3.62,0,2.56,2.56,0,0,0-1.81-4.36" transform="translate(-60.85 -184.09)"/><path class="cls-1" d="M261.17,354.12a12.28,12.28,0,0,1-8.75-3.63l-2.27-2.25a1.24,1.24,0,0,1,0-1.73,1.22,1.22,0,0,1,1.73,0l2.26,2.26a9.93,9.93,0,0,0,16.43-3.88,1.22,1.22,0,1,1,2.32.77,12.4,12.4,0,0,1-11.74,8.46" transform="translate(-60.85 -184.09)"/><path class="cls-6" d="M68,290.58c0,11.38,14.66,71.15,14.66,71.15s26.54-59.77,26.54-71.15a20.6,20.6,0,0,0-41.2,0" transform="translate(-60.85 -184.09)"/><path class="cls-1" d="M82.68,364.71a1.22,1.22,0,0,1-1.16-.85c-.85-2.61-20.66-64.07-20.66-75.51a21.82,21.82,0,1,1,43.65,0c0,11.44-19.81,72.9-20.66,75.51a1.23,1.23,0,0,1-1.17.85m0-95.74A19.39,19.39,0,0,0,63.3,288.34c0,9.51,15,57.45,19.37,71.12C87,345.79,102,297.85,102,288.34A19.4,19.4,0,0,0,82.68,269" transform="translate(-60.85 -184.09)"/><path class="cls-1" d="M82.68,269a1.23,1.23,0,0,1-1-.57L67,244.81a1.22,1.22,0,1,1,2.08-1.29l12.4,19.94V240.61a1.23,1.23,0,0,1,2.45,0v27.14a1.23,1.23,0,0,1-.89,1.17,1.34,1.34,0,0,1-.34,0" transform="translate(-60.85 -184.09)"/><path class="cls-1" d="M82.68,264.23A1.25,1.25,0,0,1,82,264a1.23,1.23,0,0,1-.33-1.7l13.21-19.49a1.23,1.23,0,0,1,1.7-.32,1.21,1.21,0,0,1,.33,1.69l-13.2,19.48a1.23,1.23,0,0,1-1,.54" transform="translate(-60.85 -184.09)"/><path class="cls-1" d="M82.68,296.58H63.07a1.23,1.23,0,1,1,0-2.45h19.6a1.23,1.23,0,1,1,0,2.45" transform="translate(-60.85 -184.09)"/><path class="cls-1" d="M98.77,311.43H82.68a1.23,1.23,0,0,1,0-2.45H98.77a1.23,1.23,0,0,1,0,2.45" transform="translate(-60.85 -184.09)"/><path class="cls-1" d="M89.56,342.74H82.68a1.22,1.22,0,1,1,0-2.45h6.88a1.22,1.22,0,0,1,0,2.45" transform="translate(-60.85 -184.09)"/><path class="cls-1" d="M82.68,326.28H71.08a1.23,1.23,0,0,1,0-2.45h11.6a1.23,1.23,0,1,1,0,2.45" transform="translate(-60.85 -184.09)"/></svg>
